<svg xmlns="http://www.w3.org/2000/svg" xmlns:xlink="http://www.w3.org/1999/xlink" version="1.1" x="0px" y="0px" viewBox="0 0 500 500" style="enable-background:new 0 0 500 500;" xml:space="preserve">
<g id="BACKGROUND">
	<rect id="XMLID_28_" y="0" style="fill:#FFFFFF;" width="500" height="500"/>
</g>
<g id="OBJEKTS">
	<g id="XMLID_55_">
	</g>
	<g id="XMLID_122_">
	</g>
	<g>
		
			<line style="fill:#000000;stroke:#110809;stroke-width:2;stroke-miterlimit:10;" x1="99.887" y1="310.484" x2="385.02" y2="310.484"/>
		<path style="fill:#FFBF00;" d="M381.538,380.069c-0.024,0.635-0.17,1.225-0.605,1.774c-0.592,0.748-1.482,1.274-2.326,1.671    c-2.333,1.098-4.954,1.502-7.297,2.588c-1.483,0.687-3.644,2.675-2.191,4.371c1.006,1.174,3.544,1.068,4.918,0.97    c4.857-0.349,9.695-0.953,14.488-1.809c0.442-0.079,0.906-0.171,1.246-0.464c0.522-0.451,0.589-1.221,0.615-1.91    c0.131-3.453,0.178-6.909,0.141-10.364c-0.036-3.338-0.841-4.724-4.16-5.795c-1.114-0.359-2.398-0.64-3.4-0.035    c-0.795,0.48-1.204,1.41-1.406,2.317c-0.321,1.437-0.243,2.93-0.163,4.4C381.441,378.603,381.565,379.364,381.538,380.069z"/>
		<path d="M434.109,309.902c-0.228-2.076-2.493-2.938-4.299-3.798c-4.263-2.029-9.205-2.648-13.823-1.636    c-5.369,1.177-9.985,4.348-15.17,6.04c-6.966,2.274-13.794,4.607-20.495,7.751c-2.049,0.961-3.967,2.199-5.623,3.741    c-1.815,1.69-3.301,3.452-3.735,5.987c-0.546,3.188,0.088,6.481,0.722,9.607c0.707,3.486,1.516,6.976,2.094,10.514l4.713,28.848    c0.102,0.624,0.705,1.036,1.324,0.904l13.61-2.916c0.606-0.13,0.988-0.733,0.844-1.336c-0.542-2.264-0.987-4.572-0.709-6.872    c0.165-1.365,0.582-2.696,0.651-4.069c0.151-2.979-1.332-6.017-0.458-8.869c0.241-0.787,0.655-1.519,0.829-2.323    c0.186-0.856,0.09-1.745-0.018-2.614c-0.23-1.842-0.513-3.678-0.849-5.503c-0.253-1.371-1.11-3.351-0.913-4.729    c0.399-2.804,5.107-1.823,7.173-1.876c2.659-0.068,5.319-0.137,7.97-0.363c5.339-0.455,10.634-1.599,15.348-4.235    c2.607-1.455,4.009-4.752,5.31-7.299c1.584-3.1,2.827-6.371,3.865-9.691C432.966,313.572,434.298,311.625,434.109,309.902z" fill="#1a9690"/>
		<line style="fill:#000000;stroke:#110809;stroke-miterlimit:10;" x1="206.546" y1="313.745" x2="312.422" y2="313.745"/>
		<line style="fill:#000000;stroke:#110809;stroke-miterlimit:10;" x1="121.982" y1="313.745" x2="153.589" y2="313.745"/>
		<g>
			<path style="fill:#FFFFFF;stroke:#1a9690;stroke-miterlimit:10;" d="M120.628,112.942l37.092,56.166     c0.853,1.292,0.497,3.03-0.794,3.883l-0.244,0.161c-1.292,0.853-3.03,0.497-3.883-0.794l-37.092-56.166     c-0.853-1.292-0.497-3.03,0.794-3.883l0.244-0.161C118.036,111.295,119.775,111.65,120.628,112.942z"/>
			<ellipse transform="matrix(0.7902 -0.6128 0.6128 0.7902 -80.1864 141.5476)" cx="166.653" cy="187.895" rx="31.99" ry="31.99" fill="#1a9690"/>
			
				<ellipse transform="matrix(0.1872 -0.9823 0.9823 0.1872 -49.115 316.4331)" style="fill:#FFFFFF;stroke:#1a9690;stroke-miterlimit:10;" cx="166.653" cy="187.895" rx="24.959" ry="24.959"/>
			<path style="fill:#000000;stroke:#1a9690;stroke-width:2;stroke-miterlimit:10;" d="M185.874,189.988     c-1.156,10.615-10.698,18.284-21.313,17.128"/>
		</g>
		<g>
			<path style="opacity:0.18;fill:#FFC200;" d="M244.107,237.718c3.568,0,6.61-2.819,6.634-6.387c0-0.024,0-0.049,0-0.073v-28.62     c0-5.9-4.616-10.977-10.515-11.069c-5.98-0.093-10.856,4.726-10.856,10.684v29.005c0,0.024,0,0.049,0,0.073     c0.024,3.568,3.065,6.387,6.634,6.387H244.107z"/>
			<path style="fill:#FFBF00;" d="M246.086,233.168c0.97-1.404,1.553-3.151,1.553-5.052v-22.681c0-4.615-3.395-8.356-7.583-8.356     c-4.188,0-7.583,3.741-7.583,8.356v22.681c0,1.901,0.583,3.648,1.553,5.052H246.086z"/>
			<path style="fill:#000000;stroke:#1a9690;stroke-miterlimit:10;" d="M240.418,233.022h-0.726c-1.754,0-3.176-1.422-3.176-3.176     c0-5.814,0.045-11.605-0.3-17.41c-0.056-0.948-0.104-1.942,0.3-2.801c0.143-0.304,0.399-0.615,0.735-0.603     c0.268,0.009,0.487,0.227,0.613,0.463c0.203,0.38,0.241,0.845,0.101,1.252c-0.033,0.095-0.082,0.195-0.175,0.233     c-0.252,0.104-0.389-0.295-0.367-0.567c0.022-0.279,0.047-0.567,0.176-0.815c0.607-1.168,2.058-0.363,2.247,0.617     c0.087,0.452-0.112,1.28-0.6,0.669c-0.301-0.377,0.068-1.222,0.339-1.507c0.435-0.456,1.213-0.563,1.72-0.188     c0.507,0.374,0.614,1.208,0.176,1.661c-0.09,0.093-0.24,0.17-0.343,0.091c-0.037-0.029-0.059-0.073-0.077-0.117     c-0.251-0.611,0.064-1.39,0.664-1.666c0.654-0.301,1.437,0.014,1.675,0.694c0.117,0.333,0.087,0.714-0.08,1.024     c-0.075,0.14-0.207,0.279-0.364,0.259c-0.168-0.021-0.259-0.21-0.281-0.378c-0.04-0.307,0.058-0.629,0.261-0.863     c0.088-0.101,0.215-0.191,0.346-0.164c0.098,0.021,0.173,0.104,0.209,0.197c0.037,0.093,0.041,0.195,0.044,0.295     c0.115,4.257,0.114,8.538,0.087,12.81c-0.014,2.271-0.03,4.542-0.03,6.813C243.594,231.6,242.172,233.022,240.418,233.022z"/>
			<rect x="237.671" y="233.823" style="fill:#FFBF00;" width="4.768" height="8.323"/>
			<path d="M245.699,235.044h-11.288c-0.513,0-0.928-0.416-0.928-0.928v-0.166c0-0.513,0.416-0.928,0.928-0.928h11.288     c0.513,0,0.928,0.416,0.928,0.928v0.166C246.627,234.629,246.212,235.044,245.699,235.044z" fill="#1a9690"/>
			<path d="M245.699,237.066h-11.288c-0.513,0-0.928-0.415-0.928-0.928v-0.166c0-0.513,0.416-0.928,0.928-0.928h11.288     c0.513,0,0.928,0.415,0.928,0.928v0.166C246.627,236.651,246.212,237.066,245.699,237.066z" fill="#1a9690"/>
		</g>
		<g>
			<path d="M158.932,290.046c0,6.482-1.735,11.44-5.201,14.875c-3.468,3.437-8.118,5.153-13.951,5.153h-21.778v-67.667h20.709     c6.417,0,11.229,1.652,14.437,4.958c3.208,3.306,4.813,7.812,4.813,13.514c0,2.854-0.6,5.478-1.799,7.876     c-1.2,2.398-3.354,4.311-6.465,5.736v0.486c1.62,0.52,3.014,1.28,4.181,2.285c1.167,1.005,2.122,2.187,2.868,3.549     c0.744,1.36,1.296,2.836,1.653,4.423C158.753,286.822,158.932,288.426,158.932,290.046z M147.071,261.269     c0-2.723-0.729-4.862-2.188-6.418c-1.458-1.555-3.808-2.333-7.049-2.333h-8.75v17.695h8.847c3.175,0,5.493-0.826,6.951-2.479     C146.342,266.081,147.071,263.927,147.071,261.269z M148.044,289.413c0-2.864-0.714-5.177-2.139-6.936     c-1.426-1.759-3.792-2.639-7.098-2.639h-9.722v19.737h9.82c1.75,0,3.208-0.26,4.375-0.782c1.167-0.521,2.106-1.253,2.819-2.198     c0.713-0.944,1.215-2.036,1.507-3.273C147.898,292.085,148.044,290.782,148.044,289.413z" fill="#1a9690"/>
			<path style="fill:#FFBF00;" d="M198.793,310.074l-10.111-28.195h-8.653v28.195h-11.083v-67.667h21.778     c2.786,0,5.379,0.406,7.778,1.215c2.397,0.811,4.456,2.027,6.174,3.646c1.717,1.621,3.063,3.646,4.035,6.077     c0.972,2.43,1.458,5.266,1.458,8.507c0,4.277-0.908,7.972-2.722,11.083c-1.815,3.112-4.506,5.478-8.07,7.098l11.569,30.042     H198.793z M199.279,261.852c0-3.175-0.811-5.525-2.43-7.049c-1.621-1.522-3.954-2.285-7-2.285h-9.82v19.348h9.722     c2.917,0,5.233-0.841,6.951-2.528C198.419,267.653,199.279,265.157,199.279,261.852z"/>
			<path d="M249.057,295.49h-18.764c-0.13,0.584-0.389,1.556-0.777,2.917c-0.389,1.361-0.794,2.819-1.215,4.375     c-0.422,1.556-0.811,3.014-1.167,4.375c-0.357,1.361-0.632,2.334-0.826,2.917h-11.569l19.542-67.667h10.694l19.64,67.667h-11.764     L249.057,295.49z M236.224,271.963l-3.5,13.612h13.805l-3.402-13.514c-0.131-0.584-0.34-1.556-0.632-2.918     c-0.292-1.36-0.617-2.786-0.973-4.278c-0.357-1.49-0.697-2.899-1.02-4.228c-0.325-1.328-0.52-2.286-0.584-2.868h-0.486     L236.224,271.963z" fill="#1a9690"/>
			<path d="M305.737,310.074l-15.944-29.07l-7.098-13.903l-0.292,0.097v42.875h-11.18v-67.667h10.208l14.973,27.612l7.972,15.166     l0.389-0.096v-42.682h11.084v67.667H305.737z" fill="#1a9690"/>
			<path d="M348.32,242.407c4.536,0,8.425,0.843,11.667,2.528c3.24,1.686,5.605,4.472,7.097,8.361     c0.907,2.399,1.442,5.364,1.604,8.896c0.161,3.533,0.243,7.535,0.243,12.007c0,5.51-0.033,10.226-0.097,14.146     c-0.065,3.923-0.617,7.277-1.653,10.063c-0.843,2.27-1.944,4.149-3.305,5.639c-1.362,1.492-2.917,2.674-4.667,3.549     s-3.663,1.507-5.736,1.896c-2.076,0.389-4.215,0.583-6.417,0.583h-19.445v-67.667H348.32z M357.75,267.588     c0-4.601-0.811-8.231-2.43-10.889c-1.621-2.657-4.506-3.986-8.653-3.986h-7.875v47.056h7.972c4.147,0,7.015-1.084,8.604-3.257     c1.588-2.171,2.382-5.201,2.382-9.091V267.588z" fill="#1a9690"/>
		</g>
		<path style="fill:#ED926E;" d="M344.776,318.397c2.481-0.342,4.819-1.262,7.278-1.503c4.288-0.421,9.321-2.228,12.832-4.726    c1.625-1.156,2.772-2.727,4.268-3.991c1.12-0.946,2.52-1.602,3.71-2.517c2.968-2.282,5.698-4.91,8.001-7.866    c2.331-2.992,3.724-6.704,3.938-10.49c0.085-1.499-0.029-3.07-0.778-4.372c-2.073-3.599-6.797-1.517-9.621-0.047    c-3.237,1.684-6.026,4.24-7.951,7.342c-0.124,0.201-0.245,0.404-0.363,0.609c-0.979,1.715-1.763,3.683-3.169,5.113    c-1.147,1.168-2.949,2.196-3.744,3.605c-1.115,1.976-1.957,3.509-3.972,4.714c-2.436,1.457-5.337,1.811-7.778,3.284    c-2.26,1.364-4.443,2.77-6.732,4.115c-2.102,1.234-3.814,3.125-6.075,4.034c-1.505,0.605-3.178,0.74-4.636,1.452    c-1.979,0.95-2.813,4.28-3.294,6.217c-0.071,0.285-0.142,0.58-0.092,0.869c0.332,1.917,2.814,0.918,3.69-0.014    c0.668-0.711,0.549-1.568,1.157-2.286c0.667-0.79,1.982-1.069,2.955-1.144c1.462-0.112,3.005,0.06,4.327-0.573    c0.661-0.316,1.22-0.817,1.88-1.135c1.003-0.483,2.155-0.51,3.266-0.592C344.177,318.471,344.478,318.439,344.776,318.397z"/>
		<g>
			<path d="M299.192,234.209c-1.655,3.024,0.929,5.205,3.082,7.235c0.589,0.555,1.223,1.083,1.967,1.401     c1.288,0.551,2.752,0.42,4.144,0.266c9.996-1.109,20.185-2.457,30.018-4.57c2.313-0.497,4.602-1.105,6.906-1.625     c2.999-0.678,6.126-1.986,8.986-3.127c2.91-1.161,5.631-2.795,8.015-4.827c0.041-0.035,0.082-0.073,0.123-0.109     c0.411-0.25,0.77-0.547,1.06-1.055c1.236-1.41,2.087-3.164,1.377-4.806c-0.819-1.891-3.211-2.43-5.266-2.593     c-6.132-0.486-12.276,0.175-18.337,1.086c-4.088,0.615-8.136,1.485-12.241,1.991c-4.175,0.515-8.155,0.052-12.306,0.147     C309.54,223.789,302.647,227.895,299.192,234.209z" fill="#1a9690"/>
			<path style="fill:#ED926E;" d="M316.996,219.284c-1.9-0.75-4.681-0.432-6.256-1.769c-1.783-1.514-2.942-4.185-3.911-6.253     c-0.623-1.33-2.939-2.891-3.248-4.09c-0.14-0.547,0.296-1.051,0.546-1.558c0.478-0.967,0.304-2.17,0.832-3.111     c0.523-0.931,1.599-1.383,2.367-2.125c0.603-0.582,1.007-1.336,1.387-2.084c1.345-2.65,3.304-5.636,3.759-8.578     c0.252-1.632,0.272-3.343-0.305-4.89c-0.723-1.939-2.755-3.993-4.897-3.099c-2.131,0.889-3.771,2.61-5.5,4.08     c-2.131,1.811-4.492,3.602-5.6,6.263c-0.588,1.412-0.767,2.959-1.232,4.416c-0.495,1.549-1.306,2.976-1.901,4.489     c-0.584,1.483-0.959,3.048-1.111,4.635c-0.071,0.739-0.091,1.502,0.146,2.206c0.272,0.805,0.855,1.462,1.434,2.084     c2.783,2.987,5.654,5.848,9.015,8.185c0.947,0.658,1.922,1.285,2.977,1.751c2.088,0.921,2.893,2.619,4.983,3.557     c1.74,0.781,3.599,1.346,5.504,1.44c1.413,0.069,3.711-0.26,3.846-1.963C319.96,221.261,318.327,219.809,316.996,219.284z"/>
			<path style="fill:#ED926E;" d="M356.387,210.142c-1.038,1.524-2.562,2.789-3.982,4.057c-1.408,1.256-2.905,2.44-4.607,3.253     c-1.402,0.669-2.917,1.075-4.323,1.734c-1.676,0.785-3.166,1.913-4.786,2.807c-1.035,0.571-4.401,2.287-5.394,1.024     c-0.918-1.168,1.139-3.068,1.987-3.6c2.398-1.508,4.267-3.949,5.632-6.421c0.48-0.869,0.901-1.772,1.42-2.618     c1.359-2.215,3.396-4.009,5.766-5.076c-1.627-1.796-2.852-3.954-3.56-6.271c-2.839-1.442-4.957-4.228-5.588-7.349     c-0.48-2.373-0.297-6.485,2.636-7.161c2.678-0.617,6.41,0.329,8.448,2.079c2.21,1.898,3.424,4.725,4.062,7.568     c0.249,1.11,0.423,2.239,0.744,3.33c0.852,2.898,2.74,5.541,2.816,8.561C357.696,207.65,357.184,208.972,356.387,210.142z"/>
			<path d="M347.741,183.824c-1.332-1.136-2.724-2.197-4.227-3.093c-2.489-1.483-5.319-2.499-8.216-2.485     c-1.576,0.008-3.365-0.275-4.904,0.017c-1.696,0.321-3.268,1.066-5.024,1.122c-2.945,0.093-5.827-0.832-8.676-1.322     c-2.897-0.499-6.172,0.68-8.657,2.071c-2.717,1.521-8.268,5.16-10.314,7.514c2.592,4.232,8.04,6.743,10.209,11.249     c0.459-0.24,0.893-0.526,1.294-0.854c-0.057,4.356-0.037,8.713,0.058,13.069c0.093,4.249-0.122,8.806,0.54,13.001     c0.654-0.612,1.816-0.357,2.64-0.366c1.297-0.014,2.595-0.019,3.892-0.023c2.433-0.006,4.867-0.021,7.3-0.021     c3.473-0.029,6.955-0.043,10.398-0.525c1.801-0.253,3.581-0.508,5.375-0.479c0.945-3.272,0.613-7.211,0.706-10.463     c0.081-2.861,0.016-5.724-0.105-8.582c-0.062-1.466-0.114-2.938-0.22-4.402c-0.054-0.738-0.594-2.294-0.04-2.831     c0.653,0.503,1.204,1.206,1.775,1.809c2.85-4.081,5.769-8.114,8.755-12.097C349.464,185.346,348.615,184.569,347.741,183.824z" fill="#1a9690"/>
			<path style="fill:#ED926E;" d="M321.244,244.122c-0.644,0.644-14.196,3.618-14.196,3.618l-0.638-6.888l12.609-4.514     L321.244,244.122z"/>
			<path d="M355.533,235.893c1.583-0.905,3.166-1.814,4.87-2.456c1.806-0.68,3.808-1.097,5.199-2.435     c1.473-1.416,1.938-3.555,2.332-5.56c0.438-2.226,0.43-4.73-0.182-6.927c-0.873-3.13-3.405-5.758-6.601-6.483     c-1.925-0.436-3.999-0.182-5.761,0.707c-1.299,0.655-2.413,1.63-3.697,2.315c-1.071,0.572-2.24,0.93-3.372,1.371     c-3.438,1.339-6.602,3.341-9.732,5.235c-3.148,1.904-5.966,4.294-9.009,6.351c-1.202,0.812-13.828,6.941-13.826,6.945     c1.637,3.646,3.067,7.395,4.565,11.112c8.165-1.105,16.033-3.674,23.974-5.807c1.575-0.423,3.038-1.056,4.615-1.415     c1.78-0.406,3.447-1.191,5.042-2.062C354.48,236.495,355.007,236.194,355.533,235.893z" fill="#1a9690"/>
			<path style="fill:#FFBF00;" d="M306.589,248.463c-2.499,0.495-5.007-0.04-7.702-0.33c-2.101-0.227-4.256,0.16-6.344-0.161     c-2.788-0.43-4.955-2.402-5.161-5.19c-0.115-1.568-0.173-3.322,0.861-4.506c0.847-0.97,2.247-1.292,3.53-1.175     c1.283,0.117,2.495,0.608,3.713,1.027c2.083,0.716,4.227,1.23,6.379,1.688c1.743,0.371,3.243,1.237,4.971,0.381     c0.093-0.046,0.198-0.096,0.295-0.062c0.105,0.037,0.154,0.154,0.191,0.258c0.616,1.732,1.171,3.485,1.662,5.256     c0.255,0.92,0.679,1.453-0.076,2.024C308.314,248.121,307.307,248.321,306.589,248.463z"/>
			<path style="fill:#ED926E;" d="M333.596,244.122c0.644,0.644,14.196,3.618,14.196,3.618l0.638-6.888l-12.609-4.514     L333.596,244.122z"/>
			<path d="M298.847,236.699c-2.61-0.986-5.144-2.143-7.537-3.585c-0.805-0.485-1.607-1.015-2.181-1.759     c-0.814-1.053-1.086-2.414-1.334-3.722c-0.926-4.872-2.238-8.585,1.294-12.723c2.875-3.369,7.489-4.677,11.399-2.242     c2.54,1.581,4.244,4.447,7.065,5.443c1.52,0.537,3.255,0.43,4.724,1.11c1.351,0.625,2.685,1.661,3.975,2.441     c3.148,1.904,5.966,4.294,9.009,6.351c1.202,0.812,13.828,6.941,13.826,6.945c-1.637,3.646-3.067,7.395-4.565,11.112     c-8.165-1.105-16.033-3.674-23.974-5.807C306.617,239.206,302.65,238.135,298.847,236.699z" fill="#1a9690"/>
			<path style="fill:#FFBF00;" d="M348.251,248.463c2.499,0.495,5.007-0.04,7.702-0.33c2.101-0.227,4.256,0.16,6.344-0.161     c2.641-0.407,5.651-3.027,5.77-5.828c0.037-0.874-0.192-1.742-0.523-2.552c-0.174-0.427-0.379-0.845-0.663-1.208     c-0.642-0.816-1.662-1.286-2.695-1.382c-1.582-0.147-3.169,0.365-4.667,0.803c-1.546,0.452-2.969,0.695-4.464,1.341     c-1.92,0.829-4.068,1.125-6.14,0.846c-0.54-0.073-1.098-0.182-1.62-0.03c-1.173,0.342-1.055,2.11-1.145,3.078     c-0.136,1.458-0.206,2.955-0.795,4.318C346.325,247.929,347.288,248.273,348.251,248.463z"/>
			<path style="fill:#ED926E;" d="M330.714,178.226c-0.386,0.003-0.775-0.032-1.123-0.194c-0.64-0.299-0.771-0.954-0.843-1.592     c-0.091-0.812-0.101-1.632-0.028-2.446c0.021-0.232,0.049-0.465,0.052-0.698c0.013-1.452,0.135-3.1,0.536-4.497     c1.477-0.039,1.541-1.116,1.639-2.368c0.03-0.383,0.032-0.807-0.216-1.101c-0.248-0.293-0.832-0.285-0.933,0.085     c0.06-1.017,0.095-2.035,0.105-3.054c0.009-0.897,0.181-1.581-0.696-2.057c-1.412-0.765-3.123-0.821-4.689-0.468     c-1.24,0.279-3.154,0.812-4.107,1.699c-1.051,0.978-0.871,2.383-1.251,3.631c-0.017,0.055-0.037,0.113-0.084,0.146     c-0.056,0.039-0.132,0.029-0.2,0.024c-0.535-0.035-1.003,0.431-1.139,0.95c-0.136,0.519-0.014,1.069,0.146,1.58     c0.103,0.328,0.232,0.666,0.493,0.889c0.262,0.223,0.694,0.281,0.937,0.039c0.473,1.058,0.869,2.256,1.159,3.384     c0.057,0.22,0.164,0.419,0.209,0.64c0.066,0.327,0.049,0.695,0.055,1.027c0.018,1.094-0.136,2.093-0.34,3.165     c-0.06,0.318-0.127,0.65-0.331,0.901c-0.371,0.458-1.047,0.491-1.637,0.485c0.342,0.617,0.454,1.288,0.867,1.884     c0.678,0.978,1.723,1.821,2.932,1.98c1.764,0.232,3.601,0.306,5.278-0.286c0.812-0.287,1.57-0.742,2.18-1.352     c0.696-0.696,1.043-1.462,1.262-2.402C330.87,178.224,330.792,178.226,330.714,178.226z"/>
			<path style="fill:#FFFFFF;stroke:#1a9690;stroke-miterlimit:10;" d="M340.824,227.359h-33.617c-0.917,0-1.66-0.743-1.66-1.66     v-19.856c0-0.917,0.743-1.661,1.66-1.661h33.617c0.917,0,1.66,0.743,1.66,1.661v19.856     C342.485,226.616,341.741,227.359,340.824,227.359z"/>
			<path d="M326.189,215.047c0,1.2-0.973,2.173-2.173,2.173c-1.2,0-2.173-0.973-2.173-2.173s0.973-2.173,2.173-2.173     C325.216,212.874,326.189,213.847,326.189,215.047z" fill="#1a9690"/>
			<path d="M330.317,159.189c-0.141-0.209-0.304-0.418-0.341-0.667c-0.024-0.163,0.009-0.328,0.008-0.492     c-0.003-0.301-0.121-0.587-0.245-0.862c-0.138-0.306-0.284-0.609-0.438-0.907c-0.156-0.301-0.325-0.605-0.576-0.834     c-0.361-0.33-0.862-0.475-1.351-0.483c-0.643-0.011-1.287,0.202-1.797,0.594c-0.297,0.229-0.549,0.516-0.862,0.723     c-0.508,0.336-1.13,0.434-1.722,0.579c-0.901,0.221-1.772,0.567-2.579,1.026c-0.333,0.189-0.659,0.401-0.917,0.684     c-0.516,0.564-0.695,1.331-0.768,2.072c-0.177,1.796-0.137,3.696,0.134,5.515c0.265,1.773,0.606,3.781,1.682,5.253     c0.933,1.277,2.497,1.969,4.065,1.934c4.745-0.106,5.566-6.389,6.267-9.92C331.159,161.986,331.151,160.427,330.317,159.189z      M325.628,170.583c-0.821,0.36-1.597,0.438-2.411,0.033c-0.535-0.266-0.089-1.19,0.448-0.942c0.542,0.249,0.927,0.24,1.475-0.023     C325.754,169.356,326.244,170.313,325.628,170.583z M329.096,166.261c-0.135,0.764-0.349,1.514-0.535,2.268     c-0.111,0.279-0.227,0.553-0.355,0.818c-1.021-1.062-2.974-1.079-4.342-0.953c-0.736,0.068-2.667,0.251-3.221,1.01     c-1.089-2.102-1.383-4.933-0.659-6.664c0.164-0.392,0.473-0.708,0.823-0.949c1.132-0.78,2.607-0.792,3.982-0.776     c0.886,0.011,1.772,0.021,2.659,0.032c1.079,0.013,1.799,0.46,2.009,1.398C329.371,163.72,329.32,164.995,329.096,166.261z" fill="#1a9690"/>
			<path d="M354.436,207.793c-0.152,0.393-0.396,0.824-0.672,1.14c-0.184,0.211,0.059,0.595,0.319,0.413     c0.528-0.368,0.843-0.753,1.075-1.355C355.331,207.543,354.608,207.348,354.436,207.793z" fill="#1a9690"/>
			<path d="M294.366,206.898c-0.271-0.214-0.551-0.326-0.555-0.728c-0.004-0.386-0.596-0.387-0.6,0     c-0.005,0.532,0.361,1.211,0.969,1.177C294.382,207.336,294.559,207.051,294.366,206.898z" fill="#1a9690"/>
		</g>
		<path style="fill:#FFFFFF;" d="M338.837,234.223c-0.004-0.012-0.008-0.024-0.011-0.036c-0.13-0.397-1.193-0.791-1.551-0.991    c-0.616-0.344-1.241-0.67-1.87-0.989c-1.227-0.622-2.469-1.214-3.687-1.852c-2.576-1.35-5.134-2.753-7.75-4.024    c-0.188-0.091-0.349,0.175-0.165,0.283c2.629,1.549,5.35,2.954,8.044,4.385c1.249,0.663,2.475,1.369,3.724,2.033    c0.612,0.326,1.23,0.642,1.858,0.938c0.614,0.29,0.831,0.514,0.772,1.245c-0.049,0.602-0.174,1.198-0.371,1.769    c-0.032,0.093-0.067,0.19-0.055,0.288c0.025,0.201,0.259,0.279,0.379,0.106C338.712,236.577,339.13,235.182,338.837,234.223z"/>
		<path d="M223.933,203.841c-3.044-0.091-6.066,0.033-9.109-0.215c-0.303-0.025-0.297,0.439,0,0.47    c3.021,0.312,6.141,0.542,9.16,0.123C224.205,204.188,224.141,203.847,223.933,203.841z" fill="#1a9690"/>
		<path d="M227.659,192.428c-1.503-1.31-3.18-2.42-4.792-3.589c-0.276-0.2-0.536,0.256-0.266,0.455    c1.585,1.169,3.136,2.419,4.821,3.441C227.608,192.848,227.829,192.576,227.659,192.428z" fill="#1a9690"/>
		<path d="M236.827,177.516c-0.124-0.391-0.739-0.226-0.618,0.17c0.649,2.118,1.183,4.331,2.079,6.36    c0.114,0.258,0.476,0.063,0.429-0.181C238.306,181.71,237.489,179.606,236.827,177.516z" fill="#1a9690"/>
		<path d="M250.545,179.477c-0.613,2.073-1.674,3.892-2.475,5.88c-0.124,0.309,0.325,0.523,0.536,0.312    c1.547-1.554,2.295-3.879,2.681-5.987C251.374,179.201,250.687,178.995,250.545,179.477z" fill="#1a9690"/>
		<path d="M260.588,191.658c-1.691,0.742-3.664,1.59-4.922,2.989c-0.214,0.238,0.052,0.548,0.328,0.425    c1.724-0.766,3.249-1.966,4.972-2.768C261.404,192.099,261.021,191.467,260.588,191.658z" fill="#1a9690"/>
		<path d="M264.538,204.829c-2.221,0.585-4.438,0.59-6.681,0.945c-0.284,0.045-0.274,0.51,0,0.563    c2.237,0.437,4.74-0.111,6.905-0.698C265.283,205.498,265.062,204.691,264.538,204.829z" fill="#1a9690"/>
		<g>
			<circle cx="251.767" cy="127.41" r="33.669" fill="#1a9690"/>
			
				<ellipse transform="matrix(0.9401 -0.341 0.341 0.9401 -28.3548 93.4743)" style="fill:#FFFFFF;stroke:#1a9690;stroke-miterlimit:10;" cx="251.767" cy="127.41" rx="25.618" ry="25.618"/>
			<ellipse transform="matrix(0.9254 -0.379 0.379 0.9254 -29.5045 104.9104)" cx="251.767" cy="127.41" rx="16.102" ry="16.103" fill="#1a9690"/>
			
				<ellipse transform="matrix(0.1606 -0.987 0.987 0.1606 85.5721 355.4425)" style="fill:#FFBF00;" cx="251.767" cy="127.41" rx="8.783" ry="8.783"/>
			<g>
				
					<line style="fill:#000000;stroke:#1a9690;stroke-width:2;stroke-miterlimit:10;" x1="303.104" y1="118.871" x2="250.845" y2="127.723"/>
				<polyline style="fill:#000000;stroke:#1a9690;stroke-width:2;stroke-miterlimit:10;" points="254.483,122.768 251,127.697       255.929,131.18     "/>
				<polyline style="fill:#000000;stroke:#1a9690;stroke-width:2;stroke-miterlimit:10;" points="293.969,116.111 290.486,121.039       295.415,124.523     "/>
				<polyline style="fill:#000000;stroke:#1a9690;stroke-width:2;stroke-miterlimit:10;" points="298.175,115.388 294.692,120.317       299.621,123.8     "/>
				<polyline style="fill:#000000;stroke:#1a9690;stroke-width:2;stroke-miterlimit:10;" points="302.382,114.665 298.898,119.594       303.827,123.077     "/>
			</g>
		</g>
		<g id="XMLID_146_">
			<path id="XMLID_147_" style="fill:#FFFFFF;stroke:#1a9690;stroke-miterlimit:10;" d="M175.74,109.591     c-1.597-1.826-3.979-2.933-6.59-2.808c-3.582,0.171-7.049,2.594-7.339,5.916c-3.507,1.001-6.15,4.253-5.969,8.053     c0.112,2.348,1.222,4.412,2.899,5.804c-0.424,1.205-0.384,2.622,0.39,4.034c0.414,0.756,1.069,1.369,1.849,1.737     c1.429,0.673,2.778,0.639,3.916,0.195l0.091,6.56c0.006,0.394,0.513,0.548,0.737,0.225l3.431-4.953     c3.198,1.309,6.067-0.654,6.281-3.559c0.85,0.423,1.813,0.646,2.828,0.598c2.933-0.14,5.244-2.449,5.469-5.301     c1.603,0.954,3.694,1.157,5.771,0.117c1.151-0.576,2.055-1.575,2.51-2.778c1.607-4.25-1.51-8.115-5.421-8.055"/>
			<g id="XMLID_149_">
				<path id="XMLID_159_" style="fill:#FFFFFF;stroke:#1a9690;stroke-miterlimit:10;" d="M162.972,123.403      c-1.891,0.09-3.469,1.28-4.146,2.922"/>
				<path id="XMLID_158_" style="fill:#FFFFFF;stroke:#1a9690;stroke-miterlimit:10;" d="M183.689,125.61      c-0.152-3.182-2.854-5.638-6.036-5.486"/>
				<path id="XMLID_157_" style="fill:#FFFFFF;stroke:#1a9690;stroke-miterlimit:10;" d="M189.096,115.847      c-1.96-0.783-3.849-0.555-5.318,0.301"/>
				<path id="XMLID_156_" style="fill:#FFFFFF;stroke:#1a9690;stroke-miterlimit:10;" d="M186.594,114.993      c-0.183-3.833-3.439-6.792-7.272-6.609c-3.833,0.183-6.792,3.439-6.609,7.272"/>
				<path id="XMLID_155_" style="fill:#FFFFFF;stroke:#1a9690;stroke-miterlimit:10;" d="M180.535,110.958      c-2.556,0.122-4.528,2.293-4.406,4.848"/>
				<path id="XMLID_154_" style="fill:#FFFFFF;stroke:#1a9690;stroke-miterlimit:10;" d="M176.478,128.57      c2.254,0.214,4.255-1.44,4.468-3.694"/>
				<path id="XMLID_153_" style="fill:#FFFFFF;stroke:#1a9690;stroke-miterlimit:10;" d="M189.382,122.566      c0.667-1.925-0.352-4.027-2.277-4.695"/>
				<path id="XMLID_152_" style="fill:#FFFFFF;stroke:#1a9690;stroke-miterlimit:10;" d="M161.204,127.974      c0.477,1.471,2.056,2.277,3.527,1.8"/>
				<path id="XMLID_151_" style="fill:#FFFFFF;stroke:#1a9690;stroke-miterlimit:10;" d="M167.94,113.831      c-1.7-1.17-3.839-1.597-6.021-1.153"/>
				<path id="XMLID_150_" style="fill:#FFFFFF;stroke:#1a9690;stroke-miterlimit:10;" d="M160.608,116.231      c-1.141,0.845-1.889,2.192-1.914,3.721"/>
			</g>
			<path id="XMLID_148_" style="fill:#A7D8EB;" d="M169.155,135.539"/>
		</g>
		<g id="XMLID_246_">
			<path id="XMLID_259_" d="M352.732,134.811h6.11c0.708,0,1.283-0.574,1.283-1.283v-20.24c0-0.708-0.574-1.283-1.283-1.283h-29.363     c-0.708,0-1.283,0.574-1.283,1.283v3.826" fill="#1a9690"/>
			<path id="XMLID_258_" style="fill:#FFFFFF;stroke:#1a9690;stroke-miterlimit:10;" d="M352,117.706h-25.942     c-0.709,0-1.283,0.574-1.283,1.283v17.96c0,0.708,0.574,1.283,1.283,1.283h1.808c0.182,0,0.33,0.148,0.33,0.33v6.967     c0,0.276,0.32,0.43,0.536,0.258l9.361-7.482c0.058-0.047,0.131-0.072,0.206-0.072H352c0.709,0,1.283-0.574,1.283-1.283v-17.96     C353.283,118.281,352.708,117.706,352,117.706z"/>
			
				<line id="XMLID_249_" style="fill:#FFFFFF;stroke:#1a9690;stroke-miterlimit:10;" x1="327.445" y1="123.763" x2="348.413" y2="123.763"/>
			
				<line id="XMLID_248_" style="fill:#FFFFFF;stroke:#1a9690;stroke-miterlimit:10;" x1="327.445" y1="126.909" x2="348.413" y2="126.909"/>
			
				<line id="XMLID_247_" style="fill:#FFFFFF;stroke:#1a9690;stroke-miterlimit:10;" x1="327.445" y1="130.578" x2="348.413" y2="130.578"/>
		</g>
		<g id="XMLID_218_">
			<path id="XMLID_233_" style="fill:#A7D8EB;" d="M402.496,125.677c-0.632,0-1.231,0.138-1.773,0.382     c-0.599-3.271-3.458-5.751-6.901-5.751c-3.444,0-6.302,2.481-6.901,5.751c-0.542-0.243-1.14-0.382-1.773-0.382     c-2.395,0-4.337,2.154-4.337,4.549c0,2.395,1.942,4.549,4.337,4.549c1.564,0,15.784,0,17.348,0c2.395,0,4.337-2.154,4.337-4.549     C406.833,127.831,404.892,125.677,402.496,125.677z"/>
			<path id="XMLID_224_" style="fill:#FFFFFF;stroke:#1a9690;stroke-miterlimit:10;" d="M397.417,118.68     c-1.097-0.491-2.314-0.764-3.594-0.764c-0.993,0-1.948,0.164-2.838,0.467"/>
			<path id="XMLID_223_" style="fill:#FFFFFF;stroke:#1a9690;stroke-miterlimit:10;" d="M399.507,116.587     c-1.655-1.012-3.601-1.596-5.684-1.596c-1.866,0-3.621,0.468-5.156,1.293"/>
			<path id="XMLID_222_" style="fill:#FFFFFF;stroke:#1a9690;stroke-miterlimit:10;" d="M401.38,114.275     c-2.111-1.567-4.725-2.494-7.557-2.494c-2.534,0-4.893,0.742-6.874,2.021"/>
		</g>
		<g>
			<g id="XMLID_172_">
				<path id="XMLID_177_" style="fill:#A7D8EB;" d="M86.657,123.861l-0.93,0.44c-0.268,0.127-0.601,0.034-0.779-0.203      c-0.876-1.171-1.789-1.93-2.834-2.573c-0.248-0.153-0.356-0.465-0.262-0.741l0.452-1.336c0.111-0.326-0.06-0.682-0.384-0.799      l-2.715-0.984c-0.325-0.118-0.684,0.047-0.806,0.37l-0.505,1.334c-0.1,0.265-0.365,0.437-0.646,0.406      c-1.235-0.135-2.668,0.001-3.883,0.262c-0.283,0.061-0.685-0.033-0.808-0.294l-0.592-1.249      c-0.149-0.315-0.398-0.778-0.713-0.629l-2.62,1.241c-0.315,0.15-0.436,0.787-0.286,1.102l0.592,1.249      c0.127,0.269,0.09,0.564-0.142,0.751c-0.933,0.752-1.718,1.646-2.37,2.654c-0.162,0.251-0.46,0.358-0.74,0.254l-1.249-0.467      c-0.331-0.122-0.695,0.048-0.812,0.381l-0.945,2.68c-0.114,0.322,0.05,0.676,0.368,0.799l1.368,0.53      c0.269,0.104,0.437,0.378,0.399,0.664c-0.164,1.218-0.144,2.413,0.208,3.834c0.072,0.288-0.067,0.605-0.335,0.732l-1.17,0.554      c-0.315,0.15-0.551,0.529-0.401,0.844l1.241,2.62c0.149,0.315,0.559,0.304,0.875,0.155l1.163-0.551      c0.259-0.123,0.597-0.005,0.778,0.217c0.738,0.904,1.693,1.795,2.733,2.471c0.245,0.16,0.347,0.486,0.243,0.76l-0.419,1.117      c-0.126,0.332,0.048,0.706,0.383,0.824l2.636,0.925c0.335,0.117,0.701-0.063,0.81-0.401l0.36-1.109      c0.094-0.29,0.383-0.463,0.686-0.428c1.228,0.144,2.443,0.101,3.631-0.145c0.291-0.06,0.541,0.098,0.668,0.366l0.568,1.198      c0.149,0.315,0.563,0.296,0.878,0.146l2.619-1.241c0.315-0.149,0.271-0.304,0.121-0.62l-0.567-1.197      c-0.124-0.26,0.058-0.63,0.283-0.811c0.98-0.788,1.978-1.818,2.669-2.894c0.155-0.241,0.49-0.351,0.76-0.257l1.212,0.41      c0.327,0.114,0.692-0.06,0.81-0.386l0.963-2.671c0.122-0.338-0.061-0.71-0.404-0.818l-1.065-0.335      c-0.284-0.089-0.472-0.365-0.439-0.66c0.135-1.231,0.042-2.559-0.19-3.7c-0.057-0.281,0.066-0.616,0.325-0.739l0.923-0.437      c0.315-0.15,0.262-0.307,0.113-0.623l-1.241-2.62C87.094,123.922,86.973,123.712,86.657,123.861z M78.488,136.516      c-3.037,1.439-6.667,0.144-8.106-2.894c-1.439-3.038-0.144-6.667,2.894-8.106c3.038-1.439,6.667-0.144,8.106,2.894      C82.821,131.448,81.525,135.077,78.488,136.516z"/>
			</g>
		</g>
		
			<line style="fill:#000000;stroke:#110809;stroke-width:2;stroke-miterlimit:10;" x1="80.293" y1="321.222" x2="375.126" y2="321.222"/>
		<g>
			<g>
				<g id="XMLID_287_">
					<g id="XMLID_7_">
						<g id="XMLID_310_">
							<path style="fill:#FFFFFF;stroke:#1a9690;stroke-miterlimit:10;" d="M409.043,226.39c1.418-1.732,2.073-3.903,1.845-6.111         c-0.188-1.816-1.154-3.637-2.951-5.558l-4.588-46.927l-11.895,1.231l4.578,46.825c-1.4,1.646-2.036,3.81-1.793,6.147         c0.217,2.102,1.206,3.943,2.658,5.271c1.704,1.559,4.046,2.412,6.524,2.155C405.632,229.195,407.629,228.118,409.043,226.39z          M400.92,223.771c-0.558-0.348-0.982-1.056-1.1-1.692c-0.122-0.656,0.04-1.221,0.326-1.786         c-0.065,0.128-0.13,0.257-0.195,0.385c0.004-0.012,0.007-0.023,0.011-0.035c0.365-1.145,1.532-1.803,2.684-1.77         c1.082,0.031,2.304,1.039,2.402,2.148c0.001,0.014,0.002,0.027,0.004,0.041c0.041,0.471,0.006,0.892-0.12,1.301         c0.005,0,0.011,0.001,0.017,0.001c-0.012,0.036-0.035,0.075-0.05,0.113c-0.067,0.188-0.15,0.374-0.265,0.56         c-0.027,0.044-0.066,0.077-0.096,0.118C403.792,224.377,402.016,224.453,400.92,223.771z"/>
						</g>
						<line style="fill:#FFFFFF;stroke:#1a9690;stroke-miterlimit:10;" x1="395.052" y1="168.894" x2="399.63" y2="215.719"/>
						<line style="fill:#FFFFFF;stroke:#1a9690;stroke-miterlimit:10;" x1="399.715" y1="168.363" x2="404.294" y2="215.188"/>
						<g id="XMLID_309_">
							<path style="fill:#FFFFFF;stroke:#1a9690;stroke-miterlimit:10;" d="M407.251,162.807         c-0.568-5.506-4.995-9.734-10.521-10.051l-1.814-0.104l4.787,8.993l-7.173,3.817l-4.865-9.144l-0.948,1.425         c-1.441,2.166-2.087,4.785-1.818,7.376c0.286,2.761,1.549,5.266,3.58,7.124c0.166,0.152,0.336,0.299,0.512,0.441         c2.329,1.893,5.256,2.765,8.242,2.456C403.393,174.502,407.888,168.969,407.251,162.807z"/>
						</g>
					</g>
					<g id="XMLID_292_">
						<g id="XMLID_297_">
							<path id="XMLID_4_" d="M419.569,178.426l3.325-0.121l4.413,38.793l-3.325,0.122L419.569,178.426z" fill="#1a9690"/>
						</g>
						<g id="XMLID_295_">
							<path id="XMLID_244_" style="fill:#FFFFFF;stroke:#1a9690;stroke-miterlimit:10;" d="M412.409,151.469         c0.073-0.102,0.148-0.203,0.228-0.302c1.085-1.368,2.625-2.226,4.334-2.416c3.56-0.396,6.813,2.271,7.251,5.943l4.515,37.713         l-12.389,1.649l-5.134-37.809C411.009,154.531,411.432,152.849,412.409,151.469z"/>
						</g>
						<g id="XMLID_294_">
							<path id="XMLID_237_" style="fill:#FFFFFF;stroke:#1a9690;stroke-miterlimit:10;" d="M417.514,212.018l5.366-6.744         l3.02,0.098l5.963,4.923L430.098,226l-8.241,0.864L417.514,212.018z"/>
						</g>
					</g>
				</g>
			</g>
			
				<line id="XMLID_3_" style="fill:#000000;stroke:#1a9690;stroke-miterlimit:10;" x1="419.308" y1="183.961" x2="414.843" y2="149.3"/>
			
				<line id="XMLID_2_" style="fill:#000000;stroke:#1a9690;stroke-miterlimit:10;" x1="423.619" y1="183.471" x2="419.153" y2="148.81"/>
			<line style="fill:#000000;stroke:#1a9690;stroke-miterlimit:10;" x1="428.371" y1="189.356" x2="415.684" y2="190.554"/>
			<line style="fill:#FFFFFF;stroke:#1a9690;stroke-miterlimit:10;" x1="428.475" y1="221.717" x2="429.157" y2="213.035"/>
		</g>
		<path d="M419.317,322.692c0.95,4.101-3.258,6.205-3.258,12.518" fill="#1a9690"/>
		<g>
			<path style="fill:#A7D8EB;" d="M373.537,338.085H81.255c-0.532,0-0.962-0.431-0.962-0.962v-14.938     c0-0.531,0.431-0.962,0.962-0.962h292.281c0.531,0,0.962,0.431,0.962,0.962v14.938     C374.499,337.654,374.068,338.085,373.537,338.085z"/>
			<line style="fill:#000000;stroke:#FFBF00;stroke-width:3;stroke-miterlimit:10;" x1="373" y1="342" x2="373" y2="320"/>
			<path d="M103.213,370.443h-5.308c-13.251,0-23.993-10.742-23.993-23.993v-20.888c0-3.097,2.511-5.608,5.608-5.608h23.693     c13.251,0,23.993,10.742,23.993,23.993v2.503C127.206,359.7,116.465,370.443,103.213,370.443z" fill="#1a9690"/>
			<path style="fill:#FFBF00;" d="M100.582,358.732h-1.383c-7.323,0-13.26-5.937-13.26-13.26v-1.383     c0-7.323,5.937-13.26,13.26-13.26h1.383c7.323,0,13.26,5.937,13.26,13.26v1.383C113.842,352.795,107.905,358.732,100.582,358.732     z"/>
			<g>
				<g>
					
						<line style="fill:#000000;stroke:#110809;stroke-width:2;stroke-miterlimit:10;" x1="138.817" y1="329.423" x2="138.817" y2="321.28"/>
					<line style="fill:#000000;stroke:#110809;stroke-miterlimit:10;" x1="146.182" y1="326.915" x2="146.182" y2="321.28"/>
					<line style="fill:#000000;stroke:#110809;stroke-miterlimit:10;" x1="153.547" y1="326.915" x2="153.547" y2="321.28"/>
					<line style="fill:#000000;stroke:#110809;stroke-miterlimit:10;" x1="160.912" y1="326.915" x2="160.912" y2="321.28"/>
					<line style="fill:#000000;stroke:#110809;stroke-miterlimit:10;" x1="168.277" y1="326.915" x2="168.277" y2="321.28"/>
				</g>
				<g>
					
						<line style="fill:#000000;stroke:#110809;stroke-width:2;stroke-miterlimit:10;" x1="175.642" y1="329.423" x2="175.642" y2="321.28"/>
					<line style="fill:#000000;stroke:#110809;stroke-miterlimit:10;" x1="183.007" y1="326.915" x2="183.007" y2="321.28"/>
					<line style="fill:#000000;stroke:#110809;stroke-miterlimit:10;" x1="190.372" y1="326.915" x2="190.372" y2="321.28"/>
					<line style="fill:#000000;stroke:#110809;stroke-miterlimit:10;" x1="197.737" y1="326.915" x2="197.737" y2="321.28"/>
					<line style="fill:#000000;stroke:#110809;stroke-miterlimit:10;" x1="205.102" y1="326.915" x2="205.102" y2="321.28"/>
				</g>
				<g>
					
						<line style="fill:#000000;stroke:#110809;stroke-width:2;stroke-miterlimit:10;" x1="212.467" y1="329.423" x2="212.467" y2="321.28"/>
					<line style="fill:#000000;stroke:#110809;stroke-miterlimit:10;" x1="219.832" y1="326.915" x2="219.832" y2="321.28"/>
					<line style="fill:#000000;stroke:#110809;stroke-miterlimit:10;" x1="227.197" y1="326.915" x2="227.197" y2="321.28"/>
					<line style="fill:#000000;stroke:#110809;stroke-miterlimit:10;" x1="234.563" y1="326.915" x2="234.563" y2="321.28"/>
					<line style="fill:#000000;stroke:#110809;stroke-miterlimit:10;" x1="241.928" y1="326.915" x2="241.928" y2="321.28"/>
				</g>
				<g>
					
						<line style="fill:#000000;stroke:#110809;stroke-width:2;stroke-miterlimit:10;" x1="249.293" y1="329.423" x2="249.293" y2="321.28"/>
					<line style="fill:#000000;stroke:#110809;stroke-miterlimit:10;" x1="256.658" y1="326.915" x2="256.658" y2="321.28"/>
					<line style="fill:#000000;stroke:#110809;stroke-miterlimit:10;" x1="264.023" y1="326.915" x2="264.023" y2="321.28"/>
					<line style="fill:#000000;stroke:#110809;stroke-miterlimit:10;" x1="271.388" y1="326.915" x2="271.388" y2="321.28"/>
					<line style="fill:#000000;stroke:#110809;stroke-miterlimit:10;" x1="278.753" y1="326.915" x2="278.753" y2="321.28"/>
				</g>
				<g>
					
						<line style="fill:#000000;stroke:#110809;stroke-width:2;stroke-miterlimit:10;" x1="286.118" y1="329.423" x2="286.118" y2="321.28"/>
					<line style="fill:#000000;stroke:#110809;stroke-miterlimit:10;" x1="293.483" y1="326.915" x2="293.483" y2="321.28"/>
					<line style="fill:#000000;stroke:#110809;stroke-miterlimit:10;" x1="300.848" y1="326.915" x2="300.848" y2="321.28"/>
					<line style="fill:#000000;stroke:#110809;stroke-miterlimit:10;" x1="308.213" y1="326.915" x2="308.213" y2="321.28"/>
					<line style="fill:#000000;stroke:#110809;stroke-miterlimit:10;" x1="315.578" y1="326.915" x2="315.578" y2="321.28"/>
				</g>
				<g>
					
						<line style="fill:#000000;stroke:#110809;stroke-width:2;stroke-miterlimit:10;" x1="322.943" y1="329.423" x2="322.943" y2="321.28"/>
					<line style="fill:#000000;stroke:#110809;stroke-miterlimit:10;" x1="330.308" y1="326.915" x2="330.308" y2="321.28"/>
					<line style="fill:#000000;stroke:#110809;stroke-miterlimit:10;" x1="337.673" y1="326.915" x2="337.673" y2="321.28"/>
					<line style="fill:#000000;stroke:#110809;stroke-miterlimit:10;" x1="345.039" y1="326.915" x2="345.039" y2="321.28"/>
					<line style="fill:#000000;stroke:#110809;stroke-miterlimit:10;" x1="352.404" y1="326.915" x2="352.404" y2="321.28"/>
				</g>
			</g>
			<circle cx="99.887" cy="345.205" r="10.113" fill="#1a9690"/>
		</g>
		<g>
			<path style="fill:#ED926E;" d="M43.034,363.522c2.511-0.232,5.063-0.005,7.494,0.665c1.121-4.168,2.148-8.362,3.081-12.577     c0.615-2.777,0.23-5.327-2.954-5.871c-1.932-0.33-3.67,0.323-4.733,1.933C43.348,351.571,43.19,359.075,43.034,363.522z"/>
			<path style="fill:#FFBF00;" d="M62.72,368.006c-1.005,2.451-3.993,1.966-6.149,1.966c-3.212-0.001-6.424-0.116-9.628-0.346     c-2.185-0.156-5.53-0.779-4.897-3.646c0.276-1.25,0.553-2.501,0.829-3.751c0.066-0.301,0.183-0.655,0.482-0.729     c0.105-0.026,0.215-0.01,0.322,0.007c1.138,0.181,2.417,0.686,3.577,0.413c1.092-0.257,2.239-0.736,3.302-1.125     c0.259-0.095,0.54-0.193,0.805-0.114c0.637,0.191,0.826,0.929,1.321,1.326c0.571,0.458,1.296,0.704,1.983,0.928     c1.993,0.652,3.93,1.147,6.002,1.454c1.514,0.224,2.636,1.622,2.201,3.183C62.825,367.725,62.775,367.87,62.72,368.006z"/>
			<path style="fill:#ED926E;" d="M92.589,314.748c2.511-0.232,5.063-0.005,7.494,0.665c1.121-4.168,2.148-8.362,3.081-12.577     c0.615-2.777,0.23-5.327-2.954-5.871c-1.932-0.33-3.67,0.323-4.733,1.933C92.903,302.798,92.745,310.302,92.589,314.748z"/>
			<path style="fill:#FFBF00;" d="M112.015,318.792c-0.06,0.752-0.485,1.481-1.246,1.894c-1.348,0.733-3.17,0.513-4.643,0.512     c-3.212-0.001-6.424-0.116-9.628-0.346c-2.185-0.156-5.531-0.779-4.897-3.646c0.276-1.25,0.553-2.501,0.829-3.751     c0.066-0.301,0.183-0.655,0.482-0.729c0.105-0.026,0.215-0.01,0.322,0.007c1.95,0.311,3.601,1.259,5.504,0.306     c0.65-0.326,1.261-0.805,1.987-0.852c0.846-0.055,1.342,1.136,1.983,1.626c0.881,0.673,1.953,1.088,2.998,1.426     c1.271,0.411,2.567,0.742,3.88,0.988c0.419,0.078,0.848,0.152,1.22,0.359C111.693,317.081,112.082,317.952,112.015,318.792z"/>
			<path d="M72.458,276.003c1.462,0.515,2.905,1.199,3.864,1.409c6.746,1.47,14.008,0.679,20.196-2.423     c2.767-1.387,5.373-3.257,7.096-5.829c1.488-2.222,3.471-5.829,2.114-8.52c-1.372-2.721-6.088-3.557-8.694-4.392     c-3.48-1.116-7.013-2.067-10.583-2.851c-8.073-1.772-15.897,0.721-23.917-1.113c-5.479-1.253-10.75-3.036-15.736-5.656     c0.083,0.043-3.906,10.781-4.151,11.756c-1.257,5-1.597,10.348,0.227,15.258c0.472,1.27,1.084,2.505,1.296,3.843     c0.228,1.436-0.018,2.9-0.218,4.341c-1.027,7.369-0.867,14.903,0.472,22.222c0.457,2.497,0.719,5.215,1.377,7.655     c0.557,2.067,2.172,3.918,1.62,6.235c-0.127,0.533-0.365,1.032-0.573,1.54c-0.71,1.73-1.082,3.597-1.091,5.467     c-0.006,1.201,0.138,2.402,0.069,3.602c-0.054,0.948-0.239,1.883-0.424,2.814c-1.611,8.128-3.641,15.88-3.778,24.222     c-0.004,0.261,15.24,2.802,16.29,1.795c1.385-1.329,1.649-5.582,2.1-7.398c0.626-2.526,1.235-5.057,1.827-7.591     c1.212-5.19,2.351-10.396,3.417-15.618c1.682-8.239,4.002-16.814,3.424-25.286c-0.358-5.256-0.624-10.514-0.756-15.781     c-0.058-2.329-1.834-7.816-0.07-9.653C68.86,275,70.674,275.375,72.458,276.003z" fill="#1a9690"/>
			<path d="M109.569,283.532c-0.06-0.387-0.106-0.774-0.133-1.163c-0.08-1.156,0.095-2.313,0.211-3.466     c0.474-4.719-0.045-9.536-1.514-14.046c-0.92-2.827-2.308-5.177-4.967-6.632c-2.609-1.427-6.012-1.061-8.489,0.473     c-2.564,1.589-5.13,4.871-5.672,7.907c-0.617,3.459-0.277,7.076-0.219,10.574c0.019,1.121,0.007,2.242-0.035,3.362     c-0.121,3.239,1.397,5.714,1.765,8.809c0.437,3.669,0.361,7.74,0.236,11.436c-0.019,0.571-0.128,1.628-0.257,2.929     c-0.049,0.488,0.342,0.915,0.833,0.898c3.26-0.114,14.156-0.037,17.4,0.14c0.433,0.024,0.806-0.3,0.848-0.732l0.925-9.321     c0.219-2.205,0.517-4.573,0.041-6.766C110.231,286.491,109.799,285.018,109.569,283.532z" fill="#1a9690"/>
			<path d="M51.489,223.971c0.45-1.612,1.009-3.192,1.613-4.753c1.411-3.642,3.111-7.247,5.727-10.147     c5.209-5.775,14.465-7.301,19.273-0.107c2.548,3.812,1.553,9.329,0.947,13.576c-1.218,8.54-2.435,17.081-3.653,25.621     c-0.493,3.458-1.424,6.389-5.097,7.014c-2.959,0.503-5.922,1.008-8.901,1.379c-3.367,0.42-11.15,2.463-13.292-1.061     c-2.528-4.159-1.163-8.17-0.328-12.626c0.827-4.411,1.407-8.961,2.495-13.314c0.325-1.732,0.65-3.466,1.103-5.168     C51.413,224.246,51.451,224.108,51.489,223.971z" fill="#1a9690"/>
			<path style="fill:#ED926E;" d="M72.752,254.734c0.562,0.325,1.129,0.639,1.691,0.945c3.781,2.06,7.677,3.902,11.635,5.595     c3.131,1.339,6.103,3.328,9.508,3.916c3.023,0.522,6.846,0.197,9.057-2.207c0.589-0.64,1.049-1.499,0.885-2.353     c-0.163-0.854-1.189-1.534-1.941-1.096c-0.208,0.121-0.369,0.307-0.551,0.465c-0.768,0.665-1.862,0.797-2.876,0.741     c-1.014-0.056-2.026-0.268-3.037-0.172c-0.366,0.035-0.74,0.109-1.098,0.025c-0.376-0.089-0.688-0.341-0.986-0.586     c-2.328-1.915-4.966-3.754-6.853-6.127c-0.806-1.014-1.389-2.185-2.111-3.261c-1.162-1.734-2.691-3.221-4.456-4.335     c-3.458-2.182-4.686-5.252-6.375-8.86c-0.521-1.113-1.046-2.235-1.342-3.428c-0.381-1.533-0.372-3.135-0.614-4.697     c-0.345-2.232-1.197-4.355-2.168-6.395c-0.88-1.85-1.89-3.687-3.393-5.08c-1.502-1.393-3.582-2.295-5.602-1.954     c-2.507,0.423-4.397,2.675-5.124,5.112c-0.727,2.437-0.504,5.045-0.209,7.571c0.284,2.43,0.647,4.911,1.792,7.074     c1.098,2.075,2.7,3.847,3.863,5.89c1.107,1.944,1.701,4.048,2.667,6.068C66.646,250.786,69.638,252.934,72.752,254.734z"/>
			<path style="fill:#ED926E;" d="M96.254,170.149c0.296-0.541,0.561-1.091,0.785-1.639c0.523-1.284,0.85-2.741,2.733-2.337     c1.348,0.289,1.987,1.881,1.997,3.26c0.013,1.708-0.601,3.197-1.171,4.758c-0.576,1.578-0.623,3.473-0.955,5.139     c-0.4,2.006-0.915,4.061-2.163,5.682c-0.925,1.202-2.218,2.114-2.987,3.422c-0.474,0.807-0.723,1.724-0.967,2.628     c-0.838,3.107-1.179,6.493-2.339,9.585c-1.217,3.242-2.832,6.387-4.883,9.182c-1.413,1.925-3.003,3.989-5.249,4.952     c-0.951,0.408-1.984,0.593-3.016,0.686c-1.352,0.122-2.846,0.044-3.863-0.854c-1.771-1.562-1.867-4.71-1.409-6.819     c0.642-2.95,1.928-5.757,3.743-8.169c1.251-1.663,2.583-3.277,3.888-4.88c1.561-1.918,2.804-4.056,4.458-5.922     c0.703-0.794,1.446-1.579,1.897-2.538c0.388-0.825,0.54-1.737,0.759-2.622c0.664-2.694,1.98-5.224,3.803-7.315     c0.852-0.978,1.812-1.859,2.645-2.854C94.797,172.494,95.601,171.343,96.254,170.149z"/>
			<path d="M80.816,204.216c-0.094-0.104-0.189-0.208-0.283-0.313c-1.456-1.608-2.918-3.649-4.533-4.996     c-1.508,2.508-2.867,5.121-4.293,7.678c-0.5,0.897-1.003,1.801-1.315,2.779c-1.298,4.065,0.651,9.272,2.859,12.708     c0.748,1.181,2.383,3.323,4.04,2.699c1.595-0.6,2.595-3.967,3.328-5.364c0.892-1.7,1.788-3.406,2.892-4.977     c0.666-0.948,1.521-1.741,2.201-2.665c0.606-0.823,0.736-1.06,0.125-2.005C84.545,207.761,82.417,205.984,80.816,204.216z" fill="#1a9690"/>
			<path style="fill:#ED926E;" d="M64.917,200.822c0.486-1.562,0.865-3.167,1.029-4.919c0.181-1.943,0.179-3.945,0.89-5.762     c1.099-2.81,5.026-4.633,7.904-3.941c4.048,0.974,2.83,7.774,2.455,10.803c-0.183,1.478-1.299,2.528-2.087,3.752     c-1.311,2.039-1.492,5.404-1.69,7.794c-0.023,0.274-0.048,0.567-0.218,0.783c-0.197,0.252-0.535,0.336-0.847,0.405     c-1.633,0.359-3.284,0.72-4.955,0.692c-2.202-0.037-5.661-0.803-4.634-3.649C63.508,204.722,64.299,202.807,64.917,200.822z"/>
			<path d="M76.035,181.427c-0.042-0.002-0.085-0.004-0.128-0.004c-1.464-0.018-2.822,0.904-3.649,2.111     c-0.136,0.199-0.269,0.413-0.48,0.53c-0.197,0.109-0.433,0.115-0.658,0.13c-1.717,0.114-3.379,0.914-4.539,2.185     c-1.135,1.243-1.647,2.776-1.763,4.429c-0.068,0.964-0.056,1.723,0.183,2.637c0.172,0.658,0.117,1.081,0.205,1.673     c0.249,1.666,1.684,1.55,2.547,0.147c0.486-0.789,0.783-1.676,1.121-2.538c0.429-1.095,0.965-2.208,1.904-2.916     c0.9-0.679,2.056-0.9,3.17-1.079c1.114-0.179,2.268-0.348,3.221-0.951C79.658,186.206,79.406,181.62,76.035,181.427z" fill="#1a9690"/>
			<path style="fill:#ED926E;" d="M70.188,192.293c-0.441-0.874-1.477-1.2-2.35-0.747c-0.991,0.514-1.544,1.923-1.333,2.995     c0.186,0.948,1.155,1.631,2.022,1.09c0.396-0.106,0.774-0.332,1.049-0.622C70.249,194.299,70.657,193.221,70.188,192.293z"/>
			<path d="M75.604,195.611c-0.397,0.1-0.672,0.374-1.108,0.184c-0.406-0.177-0.765,0.384-0.357,0.61     c0.543,0.302,1.542,0.376,1.836-0.311C76.084,195.839,75.905,195.536,75.604,195.611z" fill="#1a9690"/>
			<path d="M68.584,193.402c-0.105-0.487-0.794-0.267-0.729,0.201c0.054,0.389,0.047,0.723,0.314,1.023     c0.164,0.185,0.425,0.061,0.502-0.132C68.81,194.137,68.662,193.765,68.584,193.402z" fill="#1a9690"/>
			<path d="M69.873,248.91c-0.331-0.145-0.706-0.101-1.015-0.303c-0.347-0.225-0.49-0.555-0.506-0.955     c-0.02-0.478-0.672-0.562-0.824-0.111c-0.212,0.632,0.05,1.334,0.508,1.792c0.427,0.427,1.278,0.866,1.837,0.438     C70.131,249.573,70.257,249.078,69.873,248.91z" fill="#1a9690"/>
			<path style="fill:#FFFFFF;" d="M67.261,274.464c-1.164-1.229-2.728-1.988-4.393-2.295c-1.263-0.232-2.535-0.048-3.801,0.085     c-0.116,0.255-0.238,0.507-0.357,0.761c0.948-0.103,1.894-0.256,2.851-0.214c2.121,0.091,3.645,1.002,5.336,2.133     C67.188,275.13,67.489,274.705,67.261,274.464z"/>
			<path d="M54.436,221.49c-0.237,4.326,0.76,8.613,1.75,12.831c1.904-1.824,4.522-2.657,7.041-3.433     c2.655-0.818,5.311-1.636,7.966-2.455c0.756-0.233,1.624-0.576,1.829-1.34c0.071-0.263,0.048-0.542,0.019-0.813     c-0.615-5.799-4.014-11.185-8.837-14.422c-2.898-1.945-4.519-2.437-6.731,0.539C55.54,215,54.611,218.282,54.436,221.49z" fill="#1a9690"/>
			<path style="fill:#FFFFFF;" d="M67.4,214.77c-0.159-0.119-0.328,0.13-0.204,0.265c1.486,1.62,2.785,3.288,3.728,5.286     c1.045,2.214,1.557,4.586,2.448,6.85c0.074,0.187,0.336,0.117,0.301-0.083C72.928,222.753,71.053,217.493,67.4,214.77z"/>
			<path d="M75.69,198.868c-0.192,0.026-0.477,0.099-0.655,0.07c-0.152-0.025-0.277,0.19-0.114,0.27     c0.352,0.174,0.633,0.223,0.941-0.045C76.011,199.033,75.844,198.846,75.69,198.868z" fill="#1a9690"/>
			<g>
				<path style="fill:#FFFFFF;stroke:#1a9690;stroke-miterlimit:10;" d="M101.713,260.251h-3.115c-0.902,0-1.632-0.731-1.632-1.633      V152.646c0-0.902,0.731-1.632,1.632-1.632h3.115c0.902,0,1.632,0.731,1.632,1.632v105.973      C103.346,259.52,102.615,260.251,101.713,260.251z"/>
				<g>
					
						<line style="fill:#000000;stroke:#110809;stroke-width:2;stroke-miterlimit:10;" x1="101.835" y1="246.413" x2="96.711" y2="246.413"/>
					<line style="fill:#000000;stroke:#110809;stroke-miterlimit:10;" x1="100.257" y1="241.778" x2="96.711" y2="241.778"/>
					<line style="fill:#000000;stroke:#110809;stroke-miterlimit:10;" x1="100.257" y1="237.144" x2="96.711" y2="237.144"/>
					<line style="fill:#000000;stroke:#110809;stroke-miterlimit:10;" x1="100.257" y1="232.51" x2="96.711" y2="232.51"/>
					<line style="fill:#000000;stroke:#110809;stroke-miterlimit:10;" x1="100.257" y1="227.876" x2="96.711" y2="227.876"/>
				</g>
				<g>
					
						<line style="fill:#000000;stroke:#110809;stroke-width:2;stroke-miterlimit:10;" x1="101.835" y1="223.265" x2="96.711" y2="223.265"/>
					<line style="fill:#000000;stroke:#110809;stroke-miterlimit:10;" x1="100.257" y1="218.631" x2="96.711" y2="218.631"/>
					<line style="fill:#000000;stroke:#110809;stroke-miterlimit:10;" x1="100.257" y1="213.997" x2="96.711" y2="213.997"/>
					<line style="fill:#000000;stroke:#110809;stroke-miterlimit:10;" x1="100.257" y1="209.363" x2="96.711" y2="209.363"/>
					<line style="fill:#000000;stroke:#110809;stroke-miterlimit:10;" x1="100.257" y1="204.728" x2="96.711" y2="204.728"/>
				</g>
				<g>
					
						<line style="fill:#000000;stroke:#110809;stroke-width:2;stroke-miterlimit:10;" x1="101.835" y1="200.118" x2="96.711" y2="200.118"/>
					<line style="fill:#000000;stroke:#110809;stroke-miterlimit:10;" x1="100.257" y1="195.484" x2="96.711" y2="195.484"/>
					<line style="fill:#000000;stroke:#110809;stroke-miterlimit:10;" x1="100.257" y1="190.849" x2="96.711" y2="190.849"/>
					<line style="fill:#000000;stroke:#110809;stroke-miterlimit:10;" x1="100.257" y1="186.215" x2="96.711" y2="186.215"/>
					<line style="fill:#000000;stroke:#110809;stroke-miterlimit:10;" x1="100.257" y1="181.581" x2="96.711" y2="181.581"/>
				</g>
				<g>
					
						<line style="fill:#000000;stroke:#110809;stroke-width:2;stroke-miterlimit:10;" x1="101.835" y1="176.97" x2="96.711" y2="176.97"/>
					<line style="fill:#000000;stroke:#110809;stroke-miterlimit:10;" x1="100.257" y1="172.336" x2="96.711" y2="172.336"/>
					<line style="fill:#000000;stroke:#110809;stroke-miterlimit:10;" x1="100.257" y1="167.702" x2="96.711" y2="167.702"/>
					<line style="fill:#000000;stroke:#110809;stroke-miterlimit:10;" x1="100.257" y1="163.068" x2="96.711" y2="163.068"/>
					<line style="fill:#000000;stroke:#110809;stroke-miterlimit:10;" x1="100.257" y1="158.434" x2="96.711" y2="158.434"/>
				</g>
			</g>
			<path style="fill:#ED926E;" d="M101.794,164.538c0.175,0.965,0.41,1.919,0.703,2.855c0.063,0.202,0.133,0.409,0.272,0.569     c0.234,0.269,0.633,0.351,0.981,0.272c0.348-0.079,0.649-0.295,0.906-0.543c1.002-0.966,1.412-2.419,1.405-3.811     c-0.006-1.222-0.587-3.812-2.349-3.145C102.25,161.289,101.542,163.147,101.794,164.538z"/>
			<path d="M94.082,185.521c-0.27,0.132-0.529,0.286-0.818,0.371c-0.532,0.156-0.308,0.981,0.229,0.832     c0.453-0.126,0.813-0.324,1.061-0.731C94.746,185.681,94.377,185.377,94.082,185.521z" fill="#1a9690"/>
		</g>
		<g id="XMLID_54_">
			<path style="fill:#FFBF00;" d="M456.383,376.138c0.059,0.038,0.118,0.077,0.177,0.116c0.248,0.168,0.491,0.352,0.666,0.595     c0.207,0.287,0.307,0.636,0.393,0.979c0.48,1.907,0.667,3.979,0.166,5.902c-0.565,2.172-1.551,3.753-0.388,6.038     c1.545,3.036,4.073,1.02,5.304-1.022c1.306-2.167,1.441-4.62,2.514-6.977c1.227-2.695,2.232-5.491,3.001-8.35     c0.155-0.576,0.296-1.212,0.038-1.751c-0.201-0.419-0.606-0.696-0.999-0.944c-2.943-1.856-6.236-2.937-9.493-4.09     c-1.242-0.44-2.12-1.024-3.301-0.292c-1.435,0.889-3.293,4.31-2.718,5.986c0.344,1.002,1.175,1.764,2.067,2.335     C454.642,375.197,455.552,375.603,456.383,376.138z"/>
			<path d="M454.982,363.465c-5.25-2.957-13.439-6.202-14.718-6.675c-2.079-0.77-4.577-0.903-6.806-1.501     c0.425-1.428,1.462-2.664,2.247-3.968c1.439-2.387,1.397-4.579,1.811-7.196c0.34-2.148,1.718-3.769,2.935-5.568     c2.711-4.009,4.043-8.774,4.134-13.608c0.093-4.954-1.117-9.98-3.483-14.339c-4.022-7.411-14.032-17.188-23.2-11.409     c-7.92,4.993-0.503,16.619-0.69,23.49c-0.108,3.971-2.352,7.557-3.151,11.449c-0.836,4.075,0.034,8.043-0.379,12.075     c-0.203,1.979-0.799,3.873-1.414,5.762c-1.494,3.07-2.09,7.44-2.174,9.776c-0.035,0.955,0.01,1.925,0.29,2.839     c0.532,1.736,1.86,3.111,3.275,4.249c3.518,2.832,9.599,4.138,13.875,5.817c7.739,3.037,15.934,5.212,23.841,7.782     c3.48-4.501,6.201-9.587,8.014-14.98C459.709,366.509,457.756,365.027,454.982,363.465z" fill="#1a9690"/>
			<path d="M385.379,273.034c-2.24,0.505-4.517,2.263-6.156,3.488c-2.611,1.951-4.788,4.376-7.186,6.562     c-0.122,0.127-0.249,0.249-0.371,0.376c-0.147,0.153-0.296,0.311-0.438,0.474c0.141,0.337,0.283,0.673,0.424,1.01     c3.135,4.943,6.56,9.691,9.926,14.479c4.428-4.984,7.277-11.371,7.922-18.012c0.088-0.904,0.021-2.186-0.213-3.524     c-0.135-0.317-0.281-0.628-0.455-0.926C387.951,275.451,386.567,274.324,385.379,273.034z" fill="#1a9690"/>
			<path d="M411.575,317.713c2.387-1.453,4.728-2.992,7.102-4.413c5.589-3.347,10.831-7.23,16.349-10.689     c-5.551-8.388-12.054-16.197-17.467-24.727c-1.314-2.053-2.612-4.126-4.173-5.999c-2.116-2.537-4.766-4.715-7.885-5.802     c-3.117-1.086-7.137-0.355-10.344,0.158c-3.63,0.581-7.206,2.04-9.805,4.707c-0.907,0.931-1.678,1.984-2.442,3.035     c-3.788,5.205-4.911,9.76-1.628,15.562c1.766,3.121,3.981,5.962,6.187,8.79c1.347,1.727,14.489,16.815,17.169,22.945     C406.95,320.093,409.264,318.906,411.575,317.713z" fill="#1a9690"/>
			<path d="M434.969,302.65c-1.239,0.842-2.588,1.506-3.934,2.164c-7.301,3.568-14.653,7.033-22.052,10.393" fill="#1a9690"/>
			<path style="fill:#ED926E;" d="M408.704,279.046c5.635,0.03,10.711,6.036,10.459,11.465c-0.123,2.651-0.966,5.21-1.399,7.828     c-0.77,4.666-0.743,9.141-2.596,13.578c-1.659,3.972-4.612,7.416-8.352,9.564c-2.119,1.217-4.465,2.039-6.465,3.443     c-1.191,0.836-2.243,1.867-3.491,2.616c-2.824,1.694-6.613,2.399-9.729,3.463c-1.522,0.52-3.063,1.048-4.408,1.929     c-1.387,0.908-2.529,2.166-3.973,2.979c-1.999,1.125-4.502,1.607-6.779,1.541c-1.049-0.03-2.142-0.15-3.035-0.731     c-0.787-0.512-2.003-1.135-2.204-2.169c-0.19-0.982,0.677-2.093,1.489-2.532c1.409-0.761,3.085-0.285,4.559-0.789     c1.647-0.563,1.865-1.888,1.683-3.425c0.191-0.128,0.42-0.144,0.643-0.06c2.042,0.778,4.192-0.948,5.719-2.078     c1.384-1.024,2.617-2.238,3.813-3.472c2.377-2.453,4.521-5.139,7.137-7.352c1.542-1.304,3.635-1.936,4.56-3.73     c1.238-2.4,0.673-5.406,2.008-7.816c0.556-1.003,1.389-1.862,1.747-2.952c0.373-1.136,0.18-2.367,0.055-3.556     c-0.305-2.911-0.17-5.867,0.397-8.738c0.518-2.619,1.457-5.268,3.372-7.127C405.268,279.609,406.971,279.037,408.704,279.046z"/>
			<path d="M399.35,294.31c1.061,0.326,2.383,0.061,3.687,0.01c5.756-0.225,11.48-1.281,16.934-3.135     c0.681-0.232-1.978-10.406-2.308-11.393c-1.341-4-3.549-6.228-6.099-9.361c-2.469-3.035-6.44-5.315-10.224-4.321     c-3.574,0.939-5.916,4.571-6.477,8.223c-0.561,3.652,0.303,7.356,1.162,10.949c0.546,2.286,0.707,5.84,1.883,7.859     C398.283,293.786,398.778,294.134,399.35,294.31z" fill="#1a9690"/>
			<g id="XMLID_13_">
				<path id="XMLID_30_" d="M374.334,268.543c0.199,0.316,0.21,0.229,0.302-0.013c-0.23-2.009-2.231-4.622-1.099-5.595      c0.084-0.072-0.217-1.289-0.437-1.125c-0.37,0.276-1.071,0.936-1.105,1.339C371.884,264.472,373.521,267.254,374.334,268.543z" fill="#1a9690"/>
				<path style="fill:#ED926E;" d="M390.212,271.639c-0.884-1.803-2.21-3.506-3.203-5.098c-1.489-2.386-2.449-7.104-5.708-7.748      c-1.238-0.245-2.998,0.61-4.169,1.096c-1.121,0.594-3.734,0.694-4.303,1.82c-0.412,0.814,0.106,3.175,0.985,5.28      c-0.027,0.01-0.055,0.014-0.081,0.026c-0.555,0.262-0.727,1.062-0.385,1.787c0.342,0.725,1.069,1.102,1.624,0.84      c0.073-0.034,0.138-0.078,0.212-0.107c0.258,0.356,1.086,1.507,1.388,1.826c1.445,1.532,3.066,2.295,4.754,1.984      c0.145-0.027,1.525,2.78,1.689,3.063c0.493,0.851,0.893,1.681,1.919,1.931c1.016,0.248,2.08,0.383,3.109,0.193      c1.029-0.19,2.024-0.739,2.58-1.625c0.512-0.816,0.61-1.841,0.442-2.789C390.915,273.273,390.608,272.446,390.212,271.639z"/>
				<path id="XMLID_31_" d="M368.751,258.584c0.018-0.032,0.037-0.065,0.056-0.097c0.614-1.05,1.6-1.864,2.72-2.341      c0.533-0.227,1.125-0.382,1.689-0.251c0.564,0.131,1.076,0.618,1.074,1.196c2.972-2.68,6.88-2.041,9.051,1.297      c0.453,0.697,3.679,5.628,1.755,6.07c-0.19,0.043-0.384-0.039-0.555-0.132c-0.9-0.494-1.549-1.331-2.216-2.111      c-0.84-0.983-2.067-2.26-3.493-1.817c-1.899,0.59-3.167,2.02-4.912,2.869c-1.403,0.682-3.254,0.217-4.465-0.663      C368.021,261.563,367.913,260.086,368.751,258.584z" fill="#1a9690"/>
			</g>
			<path style="fill:#ED926E;" d="M384.693,262.285c-0.412-0.274-0.936-0.252-1.336-0.003c-0.477,0.077-0.769,0.808-0.732,1.255     c0.053,0.648,0.438,1.386,1.081,1.617C385.415,265.767,385.931,263.109,384.693,262.285z"/>
			<path d="M380.203,269.581c-0.374,0.148-0.719,0.355-0.958,0.682c-0.131,0.178,0.085,0.418,0.278,0.362     c0.298-0.087,0.586-0.225,0.875-0.339C380.831,270.116,380.642,269.408,380.203,269.581z" fill="#1a9690"/>
			<path d="M382.438,272.277c-0.386,0.194-0.674,0.566-1.044,0.8c-0.251,0.159-0.094,0.616,0.212,0.503     c0.51-0.187,1.045-0.449,1.26-0.974C382.971,272.35,382.639,272.176,382.438,272.277z" fill="#1a9690"/>
			<path d="M384.645,263.993c-0.086-0.119-0.165-0.22-0.263-0.329c-0.283-0.314-0.844,0.104-0.594,0.458     c0.085,0.12,0.163,0.221,0.261,0.331c0.087,0.099,0.246,0.133,0.37,0.098c0.113-0.033,0.171-0.072,0.227-0.175     C384.706,264.265,384.724,264.102,384.645,263.993z" fill="#1a9690"/>
			<path d="M374.707,268.364c0.067-0.487-0.62-0.587-0.67-0.091c-0.036,0.357,0.051,0.664,0.405,0.779     c0.162,0.053,0.294-0.086,0.307-0.234C374.762,268.68,374.691,268.483,374.707,268.364z" fill="#1a9690"/>
			<path d="M409.814,315.008c-0.372,0.508-1,0.864-1.286,1.42c-0.188,0.366,0.12,0.691,0.492,0.64     c0.746-0.102,1.32-0.948,1.702-1.528C411.101,314.965,410.206,314.472,409.814,315.008z" fill="#1a9690"/>
			<path d="M364.265,310.028c-0.352,0.314-0.651,0.589-1.149,0.603c-0.471,0.013-0.471,0.717,0,0.732     c0.729,0.023,1.448-0.301,1.719-1.002C364.967,310.018,364.496,309.823,364.265,310.028z" fill="#1a9690"/>
			<path style="fill:#FFFFFF;" d="M416.901,320.603c-0.098-0.162-0.399-0.154-0.436,0.057c-0.193,1.092,0.078,1.696,0.292,2.787     c0.393,2.009-0.084,3.71-0.845,5.547c-0.893,2.154-2.08,4.276-1.935,6.673c0.02,0.335,0.532,0.444,0.613,0.083     C415.716,330.742,420.005,325.755,416.901,320.603z"/>
			<path style="fill:#FFFFFF;" d="M400.423,280.927c0.041-0.192-0.248-0.345-0.338-0.142c-1.801,4.055-1.078,9.415,0.071,13.571     c0.039,0.143,0.28,0.121,0.267-0.036C400.022,289.537,399.404,285.711,400.423,280.927z"/>
			<path style="fill:#FFFFFF;" d="M385.241,294.859c-1.193-1.626-2.067-3.303-2.746-5.204c-0.092-0.257-0.475-0.157-0.412,0.114     c0.46,1.976,1.469,3.842,2.835,5.34C385.072,295.277,385.38,295.049,385.241,294.859z"/>
			<path style="fill:#FFFFFF;" d="M417.843,283.698c-0.101-0.207-0.454-0.062-0.376,0.158c0.828,2.334,1.555,4.647,1.903,7.107     c0.025,0.177,0.331,0.137,0.315-0.043C419.465,288.422,418.945,285.966,417.843,283.698z"/>
		</g>
		<path style="fill:#ED926E;" d="M334.879,322.18c-0.292,0.825-0.585,1.649-0.877,2.474c-0.101,0.286-0.226,0.599-0.498,0.733    c-0.409,0.201-0.912-0.151-1.053-0.584c-0.141-0.433-0.036-0.902,0.045-1.351c0.171-0.95,0.224-1.922,0.471-2.855    c0.247-0.933,0.721-1.854,1.53-2.381c1.135-0.739,2.455-0.493,2.182,0.755C336.486,319.85,335.237,321.171,334.879,322.18z"/>
		
			<line style="fill:#000000;stroke:#110809;stroke-width:2;stroke-miterlimit:10;" x1="41.887" y1="370.484" x2="327.02" y2="370.484"/>
		<line style="fill:#000000;stroke:#110809;stroke-miterlimit:10;" x1="159.396" y1="375.025" x2="260.396" y2="375.025"/>
		
			<line style="fill:#000000;stroke:#110809;stroke-width:2;stroke-miterlimit:10;" x1="320.887" y1="391.64" x2="469.396" y2="391.64"/>
		
			<line style="fill:#000000;stroke:#110809;stroke-width:2;stroke-miterlimit:10;" x1="258.887" y1="391.64" x2="307.396" y2="391.64"/>
	</g>
</g>
</svg>