<svg xmlns="http://www.w3.org/2000/svg" xmlns:xlink="http://www.w3.org/1999/xlink" version="1.1" x="0px" y="0px" viewBox="0 0 500 500" style="enable-background:new 0 0 500 500;" xml:space="preserve">
<g id="BACKGROUND">
	<rect style="fill:#ffffff;" width="500" height="500"/>
</g>
<g id="OBJECTS">
	<g>
		<circle style="fill:#f0f0f0;" cx="404.775" cy="113.697" r="64"/>
		<g>
			<path style="fill:#026b67;" d="M381.808,73.253c0,0,4.445,13.335,20.003,13.335c15.558,0,21.114-13.335,21.114-13.335     s-5.556,1.111-8.89,1.111c-3.334,0-4.445-4.445-7.779-4.445c-3.334,0-4.445,4.445-6.668,4.445c-2.223,0-4.445-6.668-6.668-6.668     c-2.223,0-4.445,6.668-5.556,6.668S381.808,73.253,381.808,73.253z"/>
			<path style="fill:#026b67;" d="M437.536,138.363c0.169-1,0.28-1.743,0.28-2.724c0-4.445-7.779-48.576-34.45-48.576     c-0.256,0-0.506,0.299-0.758,0.299c0,0-0.399,0-0.654,0c-26.671,0-34.346,44.058-34.346,48.503c0,0.98,0.112,1.497,0.28,2.497     h-0.055c0,0-0.323,2.421,1.685,5.317c0.187,0.431,0.312,0.683,0.312,0.683h0.2c3.371,4,11.577,9,32.577,9     c20.982,0,29.414-4,32.785-9h0.201c0,0,0.125-0.252,0.312-0.683c2.009-2.896,1.685-5.317,1.685-5.317H437.536z"/>
			<g>
				<text transform="matrix(1 0 0 1 395.6954 131.6474)" style="fill:#ffffff; font-family:'Anton-Regular'; font-size:39.3162px;">$</text>
			</g>
		</g>
	</g>
	<g>
		<circle style="fill:#f0f0f0;" cx="105.37" cy="228.999" r="64"/>
		<g>
			<path style="fill:#455a64;" d="M104.789,271.611c-36.469-15.864-37.19-56-36.986-63.644c0.019-0.711,0.561-1.29,1.269-1.354     c5.111-0.46,25.067-3.283,35.092-19.666c0.553-0.904,1.848-0.904,2.401,0c10.032,16.384,29.99,19.206,35.101,19.667     c0.709,0.064,1.25,0.643,1.269,1.354c0.204,7.645-0.518,47.781-36.996,63.644C105.577,271.769,105.153,271.769,104.789,271.611z"/>
			<g>
				<rect x="89.998" y="223.598" style="fill:#f0f0f0;" width="30.743" height="9.488"/>
				
					<rect x="89.998" y="223.598" transform="matrix(-1.836970e-16 1 -1 -1.836970e-16 333.7121 122.9722)" style="fill:#f0f0f0;" width="30.743" height="9.488"/>
			</g>
		</g>
	</g>
	<g>
		<defs fill="#000000">
			<rect id="SVGID_1_" width="500" height="500" fill="#000000"/>
		</defs>
		<clipPath id="SVGID_00000152957994211451401870000010144159844382015880_" fill="#000000">
			<use xlink:href="#SVGID_1_" style="overflow:visible;" fill="#000000"/>
		</clipPath>
		<g style="clip-path:url(#SVGID_00000152957994211451401870000010144159844382015880_);">
			<g>
				<path style="fill:#026b67;" d="M142.517,385.092c0.423,3.107,0.598,6.062,0.352,8.719c-0.112,1.325-0.295,2.565-0.502,3.676      c-0.175,1.102-0.322,2.06-0.495,2.85c-0.204,0.976-1.552,1.389-2.284,0.669c-0.582-0.581-1.311-1.311-2.031-2.207      c-0.688-0.905-1.42-1.962-2.134-3.157c-1.405-2.393-2.881-5.32-3.35-8.687c-1.304-6.706,0.928-12.857,2.168-15.788      c0.4-0.924,1.807-0.997,2.376-0.153C138.502,373.771,141.315,378.971,142.517,385.092z"/>
			</g>
			<g>
				<path style="fill:#026b67;" d="M138.613,390.408l1.905,7.951l2.432,7.807c1.836,5.129,3.758,10.24,6.155,15.141      c4.654,9.857,10.381,19.206,17.04,27.842c13.417,17.193,30.684,31.389,50.326,40.88l-0.417,0.877      c-19.788-9.561-37.171-23.855-50.676-41.16c-6.704-8.693-12.468-18.102-17.152-28.025c-2.412-4.933-4.348-10.078-6.196-15.242      l-2.448-7.861l-1.919-8.007L138.613,390.408z"/>
			</g>
			<g>
				<g>
					<path style="fill:#026b67;" d="M130.525,402.579c2.777,2.269,4.91,4.745,6.552,7.024c1.785,2.225,3.033,4.274,3.816,5.72       c0.483,0.891-0.361,2.001-1.427,1.862c-1.723-0.229-4.219-0.701-7.038-1.702c-1.409-0.5-2.898-1.132-4.409-1.928       c-1.54-0.784-2.922-1.8-4.35-2.974c-1.406-1.182-2.671-2.478-3.798-3.811c-0.563-0.667-1.093-1.342-1.588-2.017       c-0.491-0.676-0.882-1.374-1.279-2.049c-1.551-2.713-2.592-5.251-3.223-7.021c-0.392-1.102,0.592-2.111,1.654-1.717       c1.713,0.632,4.168,1.646,6.841,3.068c1.337,0.712,2.728,1.526,4.109,2.45C127.773,400.409,129.104,401.456,130.525,402.579z"/>
				</g>
				<g>
					<path style="fill:#026b67;" d="M149.047,421.872l-0.6,0.74c-1.498-1.013-3.008-2.054-4.53-3.122       c-0.752-0.538-1.544-1.066-2.271-1.631l-2.168-1.724c-1.451-1.164-2.912-2.356-4.382-3.577c-0.73-0.612-1.483-1.224-2.2-1.857       l-2.079-1.951l0.681-0.688c2.687,2.65,5.756,5.03,8.62,7.357C142.931,417.772,146.08,419.847,149.047,421.872z"/>
				</g>
			</g>
			<g>
				<g>
					<path style="fill:#026b67;" d="M148.015,388.252c-1.338,2.885-1.977,5.862-2.245,8.496c-0.109,2.594,0.151,4.841,0.404,6.367       c0.16,0.95,1.479,1.195,2.229,0.427c1.213-1.235,2.901-3.075,4.592-5.281c0.845-1.103,1.69-2.298,2.473-3.558       c0.78-1.26,1.64-2.618,2.308-4.007c0.686-1.393,1.208-2.743,1.6-4.026c0.196-0.642,0.359-1.266,0.495-1.871       c0.17-0.61,0.331-1.203,0.456-1.771c0.511-2.273,0.619-4.18,0.605-5.485c-0.025-0.802-1.252-1.205-2.144-0.663       c-1.398,0.877-3.346,2.25-5.331,4.146c-0.992,0.948-1.992,2.027-2.934,3.235C149.601,385.466,148.643,386.817,148.015,388.252z       "/>
				</g>
				<g>
					<path style="fill:#026b67;" d="M150.721,392.875l-0.861,2.445c-0.286,0.823-0.482,1.631-0.724,2.459       c-0.462,1.65-0.918,3.329-1.365,5.039c-0.983,3.449-1.51,6.873-2.166,10.467l-0.942-0.066       c0.628-3.598,1.204-7.052,2.177-10.512c0.91-3.436,1.725-6.723,2.964-9.987L150.721,392.875z"/>
				</g>
			</g>
			<g>
				<g>
					<path style="fill:#026b67;" d="M141.64,430.683c3.157,1.681,5.74,3.686,7.776,5.61c2.174,1.841,3.794,3.609,4.838,4.878       c0.645,0.781,0.028,2.03-1.046,2.098c-1.736,0.105-4.277,0.119-7.234-0.32c-1.478-0.219-3.06-0.552-4.693-1.04       c-1.641-0.483-3.207-1.198-4.828-2.07c-1.605-0.881-3.094-1.901-4.454-2.982c-0.68-0.54-1.328-1.096-1.944-1.658       c-0.594-0.573-1.126-1.167-1.641-1.749c-2.046-2.335-3.558-4.599-4.52-6.196c-0.608-0.989,0.187-2.181,1.286-2       c1.801,0.274,4.403,0.773,7.3,1.632c1.449,0.43,2.971,0.949,4.506,1.58C138.536,429.091,140.028,429.861,141.64,430.683z"/>
				</g>
				<g>
					<path style="fill:#026b67;" d="M163.501,446.051l-0.449,0.84c-3.298-1.441-6.816-2.875-10.033-4.653       c-1.647-0.863-3.309-1.751-4.984-2.665c-0.829-0.462-1.698-0.909-2.504-1.402l-2.416-1.506l0.536-0.805       c3.151,2.068,6.594,3.827,9.861,5.555C156.727,443.178,160.192,444.633,163.501,446.051z"/>
				</g>
			</g>
			<g>
				<g>
					<path style="fill:#026b67;" d="M155.986,413.206c-0.739,3.102-0.775,6.152-0.516,8.79c0.381,2.579,1.087,4.728,1.629,6.18       c0.341,0.901,1.685,0.889,2.272-0.009c0.951-1.446,2.249-3.579,3.477-6.075c0.613-1.248,1.209-2.587,1.73-3.981       c0.536-1.401,1.092-2.901,1.475-4.403c0.394-1.508,0.635-2.944,0.762-4.29c0.065-0.673,0.095-1.321,0.113-1.949       c0.052-0.641,0.08-1.257,0.088-1.845c0.033-2.352-0.253-4.266-0.535-5.558c-0.191-0.79-1.459-0.95-2.228-0.231       c-1.208,1.155-2.823,2.901-4.385,5.17c-0.779,1.134-1.539,2.397-2.217,3.774c-0.339,0.689-0.658,1.406-0.948,2.149       C156.398,411.675,156.159,412.435,155.986,413.206z"/>
				</g>
				<g>
					<path style="fill:#026b67;" d="M159.561,417.226c-0.571,3.443-0.709,6.806-0.952,10.35c-0.288,3.574-0.172,7.049-0.117,10.694       l-0.938,0.115l-0.079-5.391l-0.006-1.324l0.062-1.351l0.143-2.675c0.215-3.545,0.397-6.944,0.957-10.395L159.561,417.226z"/>
				</g>
			</g>
			<g>
				<g>
					<path style="fill:#026b67;" d="M157.888,456.106c3.42,1.052,6.339,2.531,8.704,4.033c2.468,1.411,4.41,2.828,5.673,3.878       c0.782,0.645,0.414,1.987-0.627,2.258c-1.685,0.432-4.179,0.928-7.169,1.057c-1.495,0.065-3.113,0.037-4.811-0.133       c-1.687-0.18-3.373-0.573-5.127-1.126c-1.744-0.561-3.4-1.279-4.942-2.083c-0.77-0.402-1.515-0.823-2.222-1.261       c-0.676-0.461-1.322-0.933-1.934-1.408c-2.45-1.899-4.363-3.828-5.609-5.21c-0.789-0.85-0.211-2.185,0.891-2.21       c1.805-0.065,4.464-0.079,7.468,0.214c1.504,0.145,3.097,0.365,4.724,0.692C154.556,455.118,156.147,455.605,157.888,456.106z"/>
				</g>
				<g>
					<path style="fill:#026b67;" d="M182.274,467.051l-0.279,0.91c-3.521-0.776-7.238-1.528-10.738-2.662       c-3.538-1.093-7.29-2.158-10.783-3.602l0.374-0.891c3.489,1.431,7.19,2.523,10.736,3.592l2.652,0.779l1.317,0.375l1.361,0.316       C178.721,466.282,180.508,466.677,182.274,467.051z"/>
				</g>
			</g>
			<g>
				<g>
					<path style="fill:#026b67;" d="M168.665,436.227c-0.133,3.187,0.413,6.188,1.17,8.728c0.846,2.474,1.96,4.438,2.764,5.763       c0.507,0.82,1.824,0.553,2.231-0.44c0.659-1.599,1.531-3.938,2.262-6.62c0.365-1.341,0.696-2.768,0.943-4.234       c0.28-1.491,0.525-3.059,0.617-4.611c0.098-1.557,0.06-3.014-0.074-4.361c-0.061-0.677-0.17-1.311-0.254-1.945       c-0.074-0.641-0.166-1.253-0.273-1.834c-0.426-2.323-1.08-4.156-1.608-5.377c-0.343-0.742-1.603-0.67-2.225,0.19       c-0.98,1.38-2.214,3.399-3.314,5.932C169.834,429.932,168.852,433.001,168.665,436.227z"/>
				</g>
				<g>
					<path style="fill:#026b67;" d="M172.946,439.498c0.1,3.488,0.58,6.828,1.023,10.346c0.397,3.561,1.152,6.962,1.907,10.522       l-0.899,0.291l-1.103-5.273c-0.188-0.855-0.323-1.747-0.444-2.643l-0.367-2.652l-0.653-5.199l-0.147-1.277l-0.082-1.314       l-0.145-2.601L172.946,439.498z"/>
				</g>
			</g>
			<g>
				<g>
					<path style="fill:#026b67;" d="M178.691,478.004c3.569,0.376,6.724,1.264,9.339,2.281c2.691,0.919,4.887,1.915,6.332,2.701       c0.895,0.479,0.801,1.869-0.168,2.338c-1.568,0.755-3.92,1.731-6.834,2.44c-1.457,0.354-3.055,0.642-4.761,0.804       c-1.683,0.133-3.426,0.082-5.258-0.128c-1.827-0.217-3.598-0.607-5.273-1.102c-0.833-0.252-1.662-0.512-2.428-0.824       c-0.755-0.324-1.481-0.666-2.176-1.016c-2.778-1.402-5.034-2.937-6.528-4.06c-0.944-0.685-0.612-2.123,0.459-2.35       c1.745-0.389,4.372-0.918,7.379-1.197C171.806,477.586,175.168,477.581,178.691,478.004z"/>
				</g>
				<g>
					<path style="fill:#026b67;" d="M204.779,483.975l-0.091,0.948c-3.61-0.047-7.404-0.053-11.063-0.482       c-3.694-0.372-7.587-0.698-11.301-1.445l0.193-0.947l2.804,0.484l1.391,0.227l1.429,0.161c1.9,0.21,3.775,0.4,5.626,0.572       l2.757,0.243l1.364,0.111l1.396,0.043C201.142,483.936,202.974,483.964,204.779,483.975z"/>
				</g>
			</g>
			<g>
				<g>
					<path style="fill:#026b67;" d="M185.47,456.431c0.475,3.147,1.583,5.983,2.811,8.328c1.289,2.277,2.773,3.971,3.813,5.118       c0.655,0.705,1.896,0.187,2.102-0.865c0.338-1.695,0.742-4.156,0.946-6.922c0.102-1.383,0.154-2.843,0.117-4.323       c0.005-1.531-0.062-3.102-0.262-4.642c-0.89-6.049-3.181-10.639-4.709-12.814c-0.472-0.664-1.687-0.365-2.14,0.602       c-0.719,1.556-1.537,3.755-2.141,6.451C185.428,450.033,185.057,453.219,185.47,456.431z"/>
				</g>
				<g>
					<path style="fill:#026b67;" d="M190.292,458.813c0.762,3.399,1.858,6.588,2.977,9.942c1.075,3.414,2.468,6.608,3.915,9.941       l-0.825,0.462c-0.731-1.668-1.436-3.318-2.116-4.949c-0.687-1.622-1.229-3.384-1.814-5.038c-0.57-1.675-1.116-3.331-1.64-4.965       c-0.275-0.802-0.5-1.651-0.713-2.502l-0.638-2.521L190.292,458.813z"/>
				</g>
			</g>
		</g>
		<g style="clip-path:url(#SVGID_00000152957994211451401870000010144159844382015880_);">
			<g>
				<path style="fill:#026b67;" d="M76.84,442.806c1.666,2.657,3.044,5.277,3.915,7.799c0.444,1.253,0.789,2.458,1.058,3.556      c0.295,1.076,0.555,2.01,0.724,2.8c0.217,0.974-0.841,1.905-1.805,1.552c-0.77-0.29-1.734-0.654-2.76-1.173      c-1-0.54-2.102-1.202-3.246-1.997c-2.266-1.601-4.818-3.66-6.633-6.534c-3.953-5.572-4.454-12.096-4.532-15.278      c-0.017-1.007,1.236-1.653,2.101-1.118C68.516,434.146,73.222,437.725,76.84,442.806z"/>
			</g>
			<g>
				<path style="fill:#026b67;" d="M75.475,449.259l5.014,6.459l5.434,6.111c3.787,3.916,7.645,7.781,11.849,11.257      c8.303,7.063,17.374,13.219,27.002,18.342c19.311,10.133,40.895,15.949,62.703,16.5l-0.018,0.971      c-21.97-0.554-43.7-6.411-63.137-16.611c-9.691-5.157-18.821-11.353-27.18-18.463c-4.231-3.5-8.116-7.39-11.928-11.333      l-5.471-6.153l-5.049-6.504L75.475,449.259z"/>
			</g>
			<g>
				<g>
					<path style="fill:#026b67;" d="M73.123,463.682c3.465,0.922,6.43,2.299,8.865,3.699c2.544,1.292,4.526,2.644,5.834,3.639       c0.807,0.613,0.496,1.972-0.532,2.285c-1.664,0.502-4.133,1.1-7.114,1.35c-1.49,0.125-3.107,0.163-4.811,0.061       c-1.726-0.079-3.405-0.436-5.189-0.916c-1.768-0.497-3.455-1.157-5.031-1.907c-0.788-0.375-1.549-0.772-2.279-1.183       c-0.726-0.414-1.37-0.888-2.01-1.34c-2.532-1.832-4.526-3.716-5.831-5.068c-0.811-0.842-0.331-2.168,0.799-2.246       c1.822-0.13,4.475-0.219,7.498-0.025c1.511,0.097,3.114,0.266,4.754,0.539C69.721,462.839,71.365,463.244,73.123,463.682z"/>
				</g>
				<g>
					<path style="fill:#026b67;" d="M97.951,473.625l-0.241,0.922c-1.782-0.306-3.587-0.631-5.414-0.977       c-0.907-0.18-1.847-0.335-2.742-0.549l-2.686-0.677c-1.801-0.462-3.624-0.946-5.466-1.453c-0.917-0.257-1.856-0.504-2.77-0.785       l-2.698-0.92l0.337-0.908c3.54,1.307,7.317,2.21,10.886,3.15C90.688,472.409,94.412,473.002,97.951,473.625z"/>
				</g>
			</g>
			<g>
				<g>
					<path style="fill:#026b67;" d="M83.152,443.418c-0.03,3.18,0.615,6.156,1.457,8.665c0.97,2.409,2.133,4.348,2.993,5.634       c0.537,0.799,1.84,0.479,2.207-0.53c0.596-1.626,1.376-3.998,2.006-6.704c0.315-1.353,0.592-2.79,0.787-4.261       c0.191-1.469,0.415-3.061,0.451-4.602c0.051-1.552-0.03-2.997-0.202-4.328c-0.086-0.665-0.195-1.302-0.321-1.909       c-0.097-0.626-0.195-1.232-0.315-1.802c-0.472-2.281-1.159-4.064-1.709-5.247c-0.354-0.72-1.637-0.582-2.227,0.279       c-0.912,1.375-2.121,3.429-3.148,5.975c-0.513,1.273-0.979,2.668-1.339,4.157C83.448,440.226,83.132,441.852,83.152,443.418z"/>
				</g>
				<g>
					<path style="fill:#026b67;" d="M87.523,446.515l0.224,2.582c0.078,0.868,0.233,1.685,0.354,2.539       c0.259,1.694,0.536,3.412,0.834,5.153c0.526,3.548,1.458,6.884,2.342,10.429l-0.886,0.328c-0.911-3.537-1.81-6.922-2.35-10.475       c-0.587-3.506-1.2-6.836-1.417-10.321L87.523,446.515z"/>
				</g>
			</g>
			<g>
				<g>
					<path style="fill:#026b67;" d="M94.834,484.705c3.569,0.23,6.749,0.993,9.397,1.906c2.74,0.781,4.945,1.724,6.418,2.45       c0.91,0.446,0.862,1.838-0.088,2.342c-1.538,0.811-3.848,1.871-6.722,2.69c-1.437,0.41-3.015,0.758-4.704,0.987       c-1.694,0.236-3.415,0.231-5.251,0.104c-1.826-0.141-3.602-0.456-5.287-0.88c-0.843-0.212-1.662-0.451-2.455-0.709       c-0.777-0.277-1.507-0.599-2.216-0.917c-2.826-1.284-5.137-2.723-6.672-3.782c-0.962-0.65-0.729-2.065,0.347-2.353       c1.754-0.493,4.33-1.111,7.324-1.523c1.497-0.206,3.098-0.36,4.757-0.418C91.35,484.534,93.027,484.62,94.834,484.705z"/>
				</g>
				<g>
					<path style="fill:#026b67;" d="M121.086,489.695l-0.062,0.95c-3.599,0.046-7.395,0.19-11.059-0.103       c-1.856-0.108-3.736-0.232-5.64-0.374c-0.946-0.079-1.922-0.128-2.86-0.245l-2.821-0.376l0.156-0.954       c3.723,0.586,7.585,0.768,11.273,0.996C113.73,489.87,117.487,489.767,121.086,489.695z"/>
				</g>
			</g>
			<g>
				<g>
					<path style="fill:#026b67;" d="M100.701,462.868c0.606,3.131,1.829,5.924,3.153,8.221c1.411,2.193,2.939,3.86,4.031,4.959       c0.683,0.68,1.902,0.115,2.066-0.945c0.27-1.71,0.574-4.188,0.663-6.968c0.044-1.39,0.034-2.856-0.065-4.34       c-0.089-1.497-0.2-3.093-0.471-4.619c-0.263-1.537-0.635-2.944-1.074-4.222c-0.218-0.64-0.459-1.243-0.701-1.823       c-0.217-0.606-0.445-1.178-0.68-1.717c-0.939-2.156-1.989-3.783-2.778-4.843c-0.5-0.642-1.721-0.264-2.125,0.708       c-0.624,1.55-1.376,3.807-1.864,6.518c-0.242,1.354-0.414,2.818-0.465,4.352c-0.025,0.767-0.02,1.552,0.022,2.349       C100.445,461.304,100.541,462.095,100.701,462.868z"/>
				</g>
				<g>
					<path style="fill:#026b67;" d="M105.615,465.057c0.899,3.372,2.159,6.493,3.399,9.822c1.211,3.375,2.749,6.493,4.302,9.792       l-0.807,0.491l-2.294-4.879l-0.551-1.204l-0.501-1.256l-0.972-2.496c-1.265-3.319-2.501-6.49-3.413-9.865L105.615,465.057z"/>
				</g>
			</g>
			<g>
				<g>
					<path style="fill:#026b67;" d="M120.118,501.17c3.55-0.452,6.818-0.307,9.592,0.087c2.831,0.268,5.184,0.759,6.768,1.195       c0.978,0.265,1.197,1.64,0.359,2.316c-1.357,1.089-3.425,2.569-6.096,3.918c-1.335,0.675-2.821,1.317-4.438,1.862       c-1.611,0.531-3.309,0.868-5.135,1.088c-1.82,0.208-3.625,0.236-5.361,0.139c-0.867-0.049-1.72-0.125-2.544-0.233       c-0.806-0.141-1.589-0.305-2.342-0.485c-3.015-0.72-5.553-1.69-7.258-2.435c-1.069-0.449-1.093-1.904-0.099-2.381       c1.618-0.803,4.034-1.912,6.892-2.884c1.43-0.487,2.972-0.944,4.589-1.317C116.674,501.644,118.324,501.431,120.118,501.17z"/>
				</g>
				<g>
					<path style="fill:#026b67;" d="M146.846,501.089l0.121,0.944c-3.528,0.745-7.225,1.592-10.881,2.001       c-3.674,0.462-7.532,1.039-11.309,1.163l-0.027-0.966c3.768-0.134,7.591-0.665,11.262-1.153l2.737-0.383l1.354-0.202       l1.37-0.273C143.292,501.854,145.084,501.476,146.846,501.089z"/>
				</g>
			</g>
			<g>
				<g>
					<path style="fill:#026b67;" d="M121.742,478.615c1.193,2.959,2.927,5.467,4.664,7.47c1.79,1.905,3.616,3.236,4.894,4.112       c0.8,0.538,1.89-0.248,1.851-1.32c-0.059-1.729-0.229-4.219-0.668-6.963c-0.22-1.372-0.507-2.809-0.886-4.246       c-0.36-1.474-0.783-3.004-1.339-4.456c-0.552-1.459-1.188-2.77-1.865-3.942c-0.335-0.592-0.695-1.124-1.033-1.667       c-0.331-0.554-0.668-1.073-1.004-1.558c-1.345-1.941-2.697-3.342-3.681-4.236c-0.618-0.535-1.736,0.05-1.949,1.09       c-0.324,1.661-0.616,4.01-0.574,6.771C120.212,472.399,120.582,475.6,121.742,478.615z"/>
				</g>
				<g>
					<path style="fill:#026b67;" d="M126.991,479.831c1.529,3.137,3.343,5.982,5.197,9.004c1.83,3.081,3.919,5.868,6.075,8.801       l-0.699,0.636l-3.178-4.35c-0.524-0.702-1.015-1.459-1.494-2.225l-1.427-2.265l-2.738-4.468l-0.66-1.103l-0.617-1.163       l-1.205-2.31L126.991,479.831z"/>
				</g>
			</g>
			<g>
				<g>
					<path style="fill:#026b67;" d="M148.097,512.545c3.407-1.128,6.647-1.62,9.45-1.771c2.83-0.271,5.242-0.27,6.882-0.149       c1.013,0.067,1.5,1.372,0.811,2.2c-1.118,1.334-2.858,3.193-5.221,5.04c-1.181,0.924-2.519,1.844-4.007,2.695       c-1.478,0.815-3.087,1.487-4.843,2.051c-1.754,0.555-3.528,0.93-5.259,1.169c-0.863,0.114-1.725,0.219-2.551,0.25       c-0.821,0.016-1.624,0.004-2.401-0.029c-3.109-0.132-5.797-0.601-7.621-1.008c-1.142-0.235-1.432-1.682-0.551-2.33       c1.43-1.073,3.605-2.638,6.229-4.133C141.652,515.003,144.713,513.612,148.097,512.545z"/>
				</g>
				<g>
					<path style="fill:#026b67;" d="M174.327,507.232l0.308,0.901c-3.308,1.446-6.767,3.004-10.278,4.122       c-3.519,1.184-7.201,2.491-10.892,3.342l-0.215-0.943l2.754-0.715l1.361-0.366l1.369-0.442       c1.817-0.592,3.604-1.191,5.361-1.798l2.612-0.915l1.289-0.461l1.289-0.536C170.997,508.695,172.678,507.966,174.327,507.232z"/>
				</g>
			</g>
			<g>
				<g>
					<path style="fill:#026b67;" d="M145.381,490.097c1.73,2.671,3.908,4.799,5.995,6.429c2.113,1.543,4.163,2.475,5.584,3.091       c0.888,0.372,1.804-0.611,1.559-1.655c-0.391-1.684-1.037-4.092-1.991-6.697c-0.477-1.302-1.032-2.653-1.675-3.987       c-0.626-1.397-1.335-2.801-2.152-4.122c-3.304-5.144-7.283-8.382-9.572-9.733c-0.704-0.41-1.688,0.363-1.702,1.43       c-0.013,1.714,0.148,4.055,0.708,6.76C142.705,484.285,143.68,487.34,145.381,490.097z"/>
				</g>
				<g>
					<path style="fill:#026b67;" d="M150.756,490.278c2.095,2.783,4.409,5.237,6.811,7.831c2.387,2.667,4.972,5.003,7.664,7.444       l-0.561,0.761c-1.353-1.218-2.676-2.431-3.968-3.636c-1.295-1.194-2.515-2.576-3.73-3.843c-1.21-1.292-2.39-2.574-3.541-3.847       c-0.581-0.618-1.136-1.298-1.681-1.986l-1.62-2.034L150.756,490.278z"/>
				</g>
			</g>
		</g>
		<g style="clip-path:url(#SVGID_00000152957994211451401870000010144159844382015880_);">
			<g>
				<path style="fill:#026b67;" d="M428.939,430.714c-4.257,6.377-10.21,10.413-13.465,12.24c-1.008,0.571-2.209-0.257-2.031-1.393      c0.586-3.659,2.115-10.573,6.332-16.891c4.217-6.321,10.065-10.421,13.265-12.335c0.992-0.594,2.216,0.202,2.065,1.343      C434.619,417.354,433.192,424.338,428.939,430.714z"/>
			</g>
			<g>
				<path style="fill:#026b67;" d="M421.8,432.405c-14.289,21.211-29.415,42.051-47.411,60.409      c-8.988,9.164-18.698,17.651-29.145,25.163c-10.47,7.473-21.733,13.891-33.657,18.826l-0.387-0.923      c11.844-4.901,23.039-11.28,33.454-18.714c10.393-7.473,20.06-15.921,29.013-25.05c17.927-18.286,33.021-39.076,47.296-60.268      L421.8,432.405z"/>
			</g>
			<g>
				<g>
					<path style="fill:#026b67;" d="M406.294,435.302c-0.215,7.526-3.198,13.964-5.027,17.16c-0.566,0.993-2.023,0.9-2.461-0.152       c-1.411-3.402-3.686-10.03-3.466-17.451c0.226-7.42,2.941-13.775,4.601-17.025c0.514-1,1.971-0.963,2.458,0.063       C403.968,421.208,406.517,427.785,406.294,435.302z"/>
				</g>
				<g>
					<path style="fill:#026b67;" d="M398.899,463.947l-0.997-0.158c1.37-8.088,2.466-16.132,3.408-24.167l0.997,0.122       C401.365,447.789,400.268,455.845,398.899,463.947z"/>
				</g>
			</g>
			<g>
				<g>
					<path style="fill:#026b67;" d="M430.218,437.78c-7.018,3.114-12.136,8.162-14.645,10.956c-0.776,0.865-0.231,2.223,0.919,2.29       c3.711,0.218,10.896,0.065,17.988-3.076c7.098-3.139,12.182-8.368,14.604-11.244c0.756-0.895,0.167-2.234-0.984-2.265       C444.375,434.344,437.243,434.67,430.218,437.78z"/>
				</g>
				<g>
					<path style="fill:#026b67;" d="M427.868,444.112c-7.361,3.92-14.767,7.739-22.204,11.335l-0.432-0.905       c7.427-3.592,14.823-7.409,22.177-11.326L427.868,444.112z"/>
				</g>
			</g>
			<g>
				<g>
					<path style="fill:#026b67;" d="M387.114,461.371c-0.643,7.438-4.124,13.598-6.212,16.602c-0.647,0.936-2.087,0.711-2.433-0.372       c-1.116-3.502-2.835-10.247-2.184-17.504c0.663-7.255,3.594-13.25,5.343-16.322c0.545-0.938,1.982-0.817,2.431,0.219       C385.492,447.322,387.774,453.947,387.114,461.371z"/>
				</g>
				<g>
					<path style="fill:#026b67;" d="M377.486,489.162l-0.977-0.257c2.18-7.902,3.931-15.781,5.39-23.638l0.982,0.199       C381.421,473.341,379.668,481.239,377.486,489.162z"/>
				</g>
			</g>
			<g>
				<g>
					<path style="fill:#026b67;" d="M410.859,465.208c-7.208,2.834-12.673,7.549-15.396,10.174c-0.841,0.811-0.403,2.21,0.742,2.356       c3.692,0.477,10.922,0.801,18.287-2.059c7.373-2.852,12.824-8.055,15.413-10.939c0.814-0.895,0.28-2.275-0.878-2.33       C425.268,462.231,418.077,462.387,410.859,465.208z"/>
				</g>
				<g>
					<path style="fill:#026b67;" d="M408.107,471.475c-7.649,3.573-15.356,6.896-23.083,9.846l-0.352-0.938       c7.709-2.947,15.399-6.265,23.033-9.834L408.107,471.475z"/>
				</g>
			</g>
			<g>
				<g>
					<path style="fill:#026b67;" d="M366.055,485.365c-1.373,7.275-5.582,12.943-8.021,15.641c-0.76,0.84-2.154,0.427-2.359-0.688       c-0.66-3.606-1.529-10.468-0.162-17.491c1.383-7.018,4.729-12.508,6.667-15.312c0.606-0.849,2.007-0.589,2.373,0.472       C365.715,471.378,367.452,478.108,366.055,485.365z"/>
				</g>
				<g>
					<path style="fill:#026b67;" d="M353.158,511.617l-0.932-0.392c3.276-7.514,5.993-15.072,8.274-22.631l0.948,0.315       C359.163,496.492,356.44,504.076,353.158,511.617z"/>
				</g>
			</g>
			<g>
				<g>
					<path style="fill:#026b67;" d="M389.303,491.527c-7.494,2.239-13.471,6.341-16.495,8.659c-0.936,0.712-0.668,2.155,0.456,2.43       c1.81,0.435,4.532,0.961,7.73,1.053c1.606,0.052,3.346,0.01,5.178-0.18c1.819-0.199,3.709-0.558,5.65-1.107       c7.753-2.232,13.788-7.142,16.669-9.907c0.911-0.854,0.49-2.295-0.668-2.421C404.048,489.634,396.805,489.314,389.303,491.527z       "/>
				</g>
				<g>
					<path style="fill:#026b67;" d="M385.886,497.571c-8.055,2.873-16.143,5.33-24.194,7.279l-0.228-0.973       c8.025-1.947,16.089-4.401,24.121-7.271L385.886,497.571z"/>
				</g>
			</g>
			<g>
				<g>
					<path style="fill:#026b67;" d="M342.412,506.218c-2.359,6.96-7.423,11.853-10.259,14.097c-0.888,0.695-2.187,0.052-2.203-1.079       c-0.036-1.834,0.044-4.43,0.37-7.469c0.169-1.509,0.414-3.101,0.767-4.717c0.342-1.637,0.779-3.327,1.368-4.973       c2.322-6.627,6.228-11.469,8.455-13.92c0.695-0.734,2.021-0.293,2.26,0.802C343.912,492.438,344.796,499.281,342.412,506.218z"/>
				</g>
				<g>
					<path style="fill:#026b67;" d="M325.512,529.898l-0.846-0.554c4.596-6.79,8.496-13.763,11.834-20.817l0.884,0.461       C334.036,516.071,330.123,523.075,325.512,529.898z"/>
				</g>
			</g>
			<g>
				<g>
					<path style="fill:#026b67;" d="M364.571,515.54c-7.777,1.283-14.338,4.464-17.697,6.315c-1.042,0.561-1.008,2.031,0.064,2.473       c1.731,0.707,4.353,1.631,7.527,2.174c1.594,0.28,3.34,0.482,5.206,0.547c1.839,0.04,3.793-0.06,5.823-0.356       c8.107-1.213,14.895-5.483,18.177-7.96c1.037-0.762,0.799-2.266-0.346-2.511C379.586,515.401,372.356,514.286,364.571,515.54z"/>
				</g>
				<g>
					<path style="fill:#026b67;" d="M360.285,521.11c-8.463,1.783-16.898,3.014-25.172,3.6l-0.06-0.996       c8.241-0.59,16.643-1.823,25.077-3.605L360.285,521.11z"/>
				</g>
			</g>
		</g>
		<g style="clip-path:url(#SVGID_00000152957994211451401870000010144159844382015880_);">
			<g>
				<path style="fill:#026b67;" d="M341.9,473.51c-4.119,6.209-9.873,10.143-13.018,11.924c-0.974,0.557-2.132-0.247-1.959-1.352      c0.572-3.56,2.057-10.287,6.138-16.438c4.081-6.154,9.733-10.151,12.825-12.017c0.959-0.579,2.139,0.193,1.992,1.303      C347.404,460.508,346.016,467.303,341.9,473.51z"/>
			</g>
			<g>
				<path style="fill:#026b67;" d="M335.005,475.166c-13.827,20.651-28.461,40.943-45.863,58.825      c-8.691,8.926-18.078,17.196-28.176,24.517c-10.119,7.284-21.003,13.543-32.523,18.36l-0.372-0.897      c11.442-4.785,22.26-11.005,32.327-18.25c10.045-7.283,19.391-15.515,28.048-24.407c17.335-17.812,31.938-38.055,45.752-58.688      L335.005,475.166z"/>
			</g>
			<g>
				<g>
					<path style="fill:#026b67;" d="M320.03,478.007c-0.219,7.32-3.108,13.586-4.879,16.698c-0.547,0.967-1.954,0.878-2.376-0.145       c-1.358-3.307-3.544-9.75-3.321-16.968c0.229-7.217,2.86-13.402,4.467-16.566c0.497-0.973,1.905-0.939,2.373,0.057       C317.806,464.302,320.257,470.695,320.03,478.007z"/>
				</g>
				<g>
					<path style="fill:#026b67;" d="M312.848,505.878l-0.963-0.152c1.335-7.868,2.405-15.694,3.326-23.51l0.963,0.117       C315.253,490.159,314.182,497.996,312.848,505.878z"/>
				</g>
			</g>
			<g>
				<g>
					<path style="fill:#026b67;" d="M343.125,480.382c-6.781,3.039-11.729,7.956-14.156,10.677c-0.75,0.842-0.226,2.163,0.884,2.225       c3.582,0.207,10.519,0.047,17.372-3.018c6.858-3.063,11.774-8.157,14.116-10.958c0.731-0.872,0.165-2.173-0.947-2.202       C356.798,477.018,349.912,477.346,343.125,480.382z"/>
				</g>
				<g>
					<path style="fill:#026b67;" d="M340.846,486.543c-7.113,3.823-14.268,7.549-21.455,11.057l-0.416-0.88       c7.176-3.505,14.322-7.228,21.428-11.048L340.846,486.543z"/>
				</g>
			</g>
			<g>
				<g>
					<path style="fill:#026b67;" d="M301.474,503.39c-0.631,7.235-4.002,13.231-6.022,16.157c-0.626,0.911-2.016,0.695-2.349-0.359       c-1.072-3.405-2.722-9.962-2.083-17.022c0.651-7.058,3.489-12.892,5.182-15.883c0.527-0.913,1.915-0.798,2.346,0.21       C299.928,489.728,302.122,496.168,301.474,503.39z"/>
				</g>
				<g>
					<path style="fill:#026b67;" d="M292.138,530.434l-0.943-0.249c2.116-7.689,3.819-15.354,5.239-22.999l0.948,0.192       C295.96,515.04,294.256,522.724,292.138,530.434z"/>
				</g>
			</g>
			<g>
				<g>
					<path style="fill:#026b67;" d="M324.393,507.087c-6.964,2.767-12.247,7.361-14.879,9.918c-0.814,0.79-0.392,2.15,0.713,2.291       c3.564,0.459,10.544,0.763,17.659-2.029c7.123-2.785,12.393-7.853,14.897-10.662c0.787-0.872,0.273-2.214-0.844-2.265       C338.31,504.17,331.367,504.333,324.393,507.087z"/>
				</g>
				<g>
					<path style="fill:#026b67;" d="M321.727,513.187c-7.39,3.487-14.836,6.73-22.301,9.611l-0.338-0.911       c7.447-2.877,14.877-6.117,22.253-9.599L321.727,513.187z"/>
				</g>
			</g>
			<g>
				<g>
					<path style="fill:#026b67;" d="M281.107,526.758c-1.336,7.078-5.408,12.596-7.767,15.224c-0.735,0.818-2.081,0.419-2.277-0.666       c-0.632-3.506-1.46-10.18-0.131-17.012c1.345-6.828,4.584-12.173,6.46-14.903c0.586-0.826,1.938-0.576,2.29,0.456       C280.799,513.154,282.466,519.698,281.107,526.758z"/>
				</g>
				<g>
					<path style="fill:#026b67;" d="M268.616,552.31l-0.899-0.38c3.174-7.313,5.809-14.668,8.022-22.024l0.915,0.305       C274.436,537.591,271.796,544.97,268.616,552.31z"/>
				</g>
			</g>
			<g>
				<g>
					<path style="fill:#026b67;" d="M303.543,532.717c-7.238,2.188-13.016,6.187-15.938,8.446c-0.904,0.694-0.648,2.097,0.437,2.363       c1.747,0.421,4.374,0.928,7.462,1.013c1.55,0.048,3.23,0.004,5-0.182c1.756-0.196,3.582-0.548,5.457-1.085       c7.488-2.182,13.322-6.967,16.108-9.66c0.881-0.833,0.476-2.233-0.641-2.354C317.782,530.854,310.789,530.553,303.543,532.717z       "/>
				</g>
				<g>
					<path style="fill:#026b67;" d="M300.235,538.601c-7.781,2.806-15.594,5.208-23.369,7.115l-0.219-0.946       c7.75-1.905,15.54-4.304,23.299-7.107L300.235,538.601z"/>
				</g>
			</g>
			<g>
				<g>
					<path style="fill:#026b67;" d="M258.249,547.075c-2.288,6.773-7.184,11.539-9.926,13.726c-0.858,0.678-2.112,0.053-2.125-1.046       c-0.032-1.784,0.049-4.309,0.368-7.265c0.165-1.467,0.404-3.017,0.748-4.589c0.333-1.593,0.757-3.237,1.328-4.839       c2.252-6.449,6.03-11.164,8.184-13.551c0.672-0.715,1.952-0.288,2.181,0.776C259.718,533.67,260.561,540.324,258.249,547.075z"/>
				</g>
				<g>
					<path style="fill:#026b67;" d="M241.898,570.131l-0.816-0.538c4.447-6.611,8.223-13.398,11.456-20.264l0.852,0.447       C250.148,556.67,246.36,563.488,241.898,570.131z"/>
				</g>
			</g>
			<g>
				<g>
					<path style="fill:#026b67;" d="M279.63,556.109c-7.51,1.259-13.849,4.363-17.096,6.168c-1.006,0.548-0.976,1.977,0.059,2.405       c1.67,0.685,4.2,1.58,7.264,2.104c1.538,0.27,3.224,0.464,5.025,0.525c1.776,0.036,3.662-0.064,5.623-0.354       c7.829-1.191,14.389-5.355,17.561-7.769c1.002-0.742,0.775-2.205-0.33-2.441C294.126,555.952,287.147,554.878,279.63,556.109z"/>
				</g>
				<g>
					<path style="fill:#026b67;" d="M275.484,561.533c-8.174,1.746-16.319,2.956-24.308,3.539l-0.057-0.968       c7.957-0.586,16.072-1.797,24.217-3.543L275.484,561.533z"/>
				</g>
			</g>
		</g>
	</g>
	<g>
		<circle style="fill:#f0f0f0;" cx="202.169" cy="100.651" r="64"/>
		<g>
			<path style="fill:#00a6a2;" d="M165.083,73.318v26.496c0,13.939,16.214,24.435,36.5,24.435s36.5-10.496,36.5-24.435V73.318     H165.083z M233.083,99.753c0,12.197-13.749,21.281-31.5,21.281s-31.5-9.084-31.5-21.281V77.318h63V99.753z"/>
			<path style="opacity:0.43;fill:#ffffff;" d="M165.083,73.318v26.496c0,13.939,16.214,24.435,36.5,24.435s36.5-10.496,36.5-24.435     V73.318H165.083z M233.083,99.753c0,12.197-13.749,21.281-31.5,21.281s-31.5-9.084-31.5-21.281V77.318h63V99.753z"/>
			<rect x="196.083" y="119.318" style="fill:#000800;" width="10" height="19"/>
			<path style="fill:#00a6a2;" d="M175.153,67.318c-0.159,1-0.07,2.243-0.07,3.471v28.137c0,14.874,11.626,26.931,26.5,26.931     c14.874,0,26.5-12.058,26.5-26.931V70.789c0-1.228,0.594-2.471,0.435-3.471H175.153z"/>
			<path style="fill:#00a6a2;" d="M234.083,66.818c0,1.933-1.567,3.5-3.5,3.5h-56c-1.933,0-3.5-1.567-3.5-3.5l0,0     c0-1.933,1.567-3.5,3.5-3.5h56C232.516,63.318,234.083,64.885,234.083,66.818L234.083,66.818z"/>
			<path style="opacity:0.43;fill:#ffffff;" d="M234.083,66.818c0,1.933-1.567,3.5-3.5,3.5h-56c-1.933,0-3.5-1.567-3.5-3.5l0,0     c0-1.933,1.567-3.5,3.5-3.5h56C232.516,63.318,234.083,64.885,234.083,66.818L234.083,66.818z"/>
			<path style="fill:#00a6a2;" d="M211.885,133.818c0,0.888-0.54,1.5-1.206,1.5h-18.49c-0.666,0-1.206-0.612-1.206-1.5l0,0     c0-0.888,0.54-1.5,1.206-1.5h18.49C211.345,132.318,211.885,132.93,211.885,133.818L211.885,133.818z"/>
			<path style="opacity:0.43;fill:#ffffff;" d="M211.885,133.818c0,0.888-0.54,1.5-1.206,1.5h-18.49c-0.666,0-1.206-0.612-1.206-1.5     l0,0c0-0.888,0.54-1.5,1.206-1.5h18.49C211.345,132.318,211.885,132.93,211.885,133.818L211.885,133.818z"/>
			<rect x="185.083" y="135.318" style="fill:#00a6a2;" width="33" height="11"/>
			<rect x="190.083" y="138.318" style="fill:#f0f0f0;" width="22" height="5"/>
			
				<ellipse transform="matrix(0.1602 -0.9871 0.9871 0.1602 76.5584 278.9924)" style="fill:#f0f0f0;" cx="202.237" cy="94.504" rx="17.686" ry="17.686"/>
			<polygon style="fill:#00a6a2;" points="202.237,84.523 205.407,90.945 212.495,91.975 207.366,96.975 208.577,104.034      202.237,100.701 195.898,104.034 197.109,96.975 191.98,91.975 199.068,90.945    "/>
		</g>
	</g>
	<g>
		<g>
			<path style="fill:#ffbea2;" d="M355.698,319.65c30.689-50.557,56.421-116.053,37.144-121.924     c-19.277-5.871-26.872,18.897-60.592,63.485c-16.031,21.198-49.714,82.64-49.714,82.64"/>
			<path style="fill:#ffbea2;" d="M290.468,337.794c30.688-50.557,56.421-116.053,37.144-121.924     c-19.277-5.871-26.872,18.898-60.592,63.485c-16.031,21.198-49.714,82.64-49.714,82.64"/>
			<path style="fill:#ffbea2;" d="M256.305,320.066c21.625-35.626,39.758-81.778,26.174-85.916     c-13.583-4.137-18.936,13.316-42.697,44.736c-11.297,14.937-35.032,58.234-35.032,58.234"/>
		</g>
		<g style="opacity:0.67;">
			<path style="fill:#ffbea2;" d="M355.696,319.647l-73.163,24.2c0,0,0.841-1.523,2.311-4.186l-67.539,22.336     c0,0,9.16-16.712,20.205-35.713l-32.763,10.832c0,0,23.742-43.286,35.032-58.23c23.763-31.421,29.12-48.868,42.701-44.735     c4.9,1.491,5.677,8.468,3.632,18.437c18.597-27.342,26.532-41.273,41.497-36.715c11.908,3.621,6.636,30.015-6.38,61.585     c4.101-6.444,7.903-12.11,11.024-16.243c33.722-44.586,41.316-69.36,60.594-63.492     C412.115,203.602,386.382,269.096,355.696,319.647z"/>
		</g>
	</g>
	<g>
		<g>
			<g>
				<g>
					<g>
						<g>
							<g>
								<g>
									<g>
										<g>
											<g>
												<g>
													<g>
														<g>
															<g>
																<path style="fill:#ffbea2;" d="M252.744,150.368c0.658-1.106-0.111-3.203-0.093-4.901                  c0.024-2.239-0.632-5.606-1.501-7.407c-1.304-2.705-5.58-10.46-7.969-11.175c-2.389-0.715,0.781,6.259,1.403,7.702                  c0.622,1.443,0.509,2.651,0.509,2.651s-8.513-15.437-10.472-15.793c-1.958-0.356,2.006,8.915,3.001,11.199                  c0,0-7.06-11.276-8.374-11.11c-2.637,0.334,4.841,13.081,4.841,13.081s-6.423-9.183-7.901-8.084                  c-1.566,1.164,5.339,10.983,5.339,10.983s-5.061-5.376-6.77-5.009c-1.708,0.366,8.049,12.472,9.773,14.152                  c1.724,1.68,5.997,6.592,8.589,8.378C244.88,156.249,250.658,153.869,252.744,150.368z"/>
															</g>
														</g>
													</g>
												</g>
											</g>
										</g>
									</g>
								</g>
							</g>
						</g>
					</g>
				</g>
			</g>
			<path style="fill:none;stroke:#ff9061;stroke-width:0.9059;stroke-linecap:round;stroke-miterlimit:10;" d="M241.628,135.966     c-4.904,0.566-6.819,3.275-6.819,3.275"/>
			<path style="fill:none;stroke:#ff9061;stroke-width:0.9059;stroke-linecap:round;stroke-miterlimit:10;" d="M237.228,140.598     c6.251,1.543,7.507,6.682,7.507,6.682"/>
		</g>
		<g>
			<path style="fill:#026b67;" d="M354.408,131.213c0,0,10.719-9.607,28.402,3.685c17.682,13.291-3.744,35.427-2.423,49.422     c1.322,13.994-4.147,12.842-14.667,10.526s-31.287-8.145-34.326-15.269C328.255,172.214,342.7,145.229,354.408,131.213z"/>
		</g>
		<g>
			<g>
				<g>
					<path style="fill:#455a64;" d="M332.343,178.673c-16.418,3.846-18.287,4.119-36.531,4.502       c-13.835-7.681-29.502-25.862-41.705-39.32l-13.641,10.871c9.968,13.141,20.27,25.683,32.435,37.005       c9.185,8.982,19.634,16.324,32.964,14.577c18.648-0.859,36.443-7.263,53.349-15.297L332.343,178.673z"/>
				</g>
			</g>
		</g>
		<g>
			<g>
				<g>
					<g>
						<g>
							<path style="fill:#00a6a2;" d="M181.495,363.659c3.791-2.568,32.003-12.677,32.003-12.677s2.622,4.969,0.869,8.365         c-1.669,3.234-9.337,20.757-10.209,22.576l-2.396-1.071l2.212-8.57c0,0-9.364,6.293-14.799,7.451         c-5.435,1.158-19.043-5.571-22.168-7.5C163.884,370.303,177.704,366.227,181.495,363.659z"/>
						</g>
					</g>
				</g>
				<g>
					<g>
						<g>
							<path style="fill:#ffbea2;" d="M219.728,343.396l-6.105,6.619c0,0-0.031,3.043-2.823,6.313         c-2.791,3.271-9.657,7.372-15.643,10.017c-5.164,2.282-14.271,2.789-16.041,0.802c-1.77-1.987,8.071-6.757,11.737-9.902         c3.666-3.146,6.146-6.632,8.286-9.709c2.188-3.145,6.374-11.401,6.374-11.401L219.728,343.396z"/>
						</g>
					</g>
				</g>
			</g>
			<g>
				<g>
					<g>
						<g>
							<g>
								<path style="fill:#00a6a2;" d="M134.618,333.248c4.489-0.902,34.416,0.684,34.416,0.684s0.497,5.596-2.434,8.051          c-2.79,2.337-16.638,15.532-18.144,16.872l-1.795-1.914l5.354-7.048c0,0-11.069,2.182-16.529,1.148          c-5.46-1.034-15.407-12.502-17.543-15.489C115.808,332.564,130.129,334.15,134.618,333.248z"/>
							</g>
						</g>
					</g>
					<g>
						<g>
							<g>
								<path style="fill:#ffbea2;" d="M177.712,329.345l-8.19,3.743c0,0-1.206,2.794-5.044,4.73          c-3.839,1.937-11.756,3.064-18.299,3.189c-5.644,0.107-14.24-2.947-15.103-5.464c-0.863-2.517,10.057-3.11,14.653-4.593          c4.597-1.483,8.232-3.74,11.396-5.749c3.234-2.054,10.287-8.05,10.287-8.05L177.712,329.345z"/>
							</g>
						</g>
					</g>
				</g>
				<g>
					<g>
						<path style="fill:#026b67;" d="M244.977,245.434c5.942-2.054,78.127,12.356,96.499,28.372        c0.202,5.83-38.377,11.039-51.188,18.374c-30.027-8.721-50.038-6.758-50.038-6.758s-20.754,18.12-30.615,23.701        c-9.861,5.581-32.125,23.503-32.125,23.503l-12.166-14.965C165.344,317.66,228.798,251.028,244.977,245.434z"/>
					</g>
				</g>
				<g>
					<g>
						<path style="fill:#026b67;" d="M244.977,245.434c5.942-2.054,78.127,12.356,96.499,28.372        c0.202,5.83-38.377,11.039-51.188,18.374c-30.027-8.721-50.038-6.758-50.038-6.758s-20.754,18.12-30.615,23.701        c-9.861,5.581-32.125,23.503-32.125,23.503l-12.166-14.965C165.344,317.66,228.798,251.028,244.977,245.434z"/>
					</g>
				</g>
				<g style="opacity:0.58;">
					<g>
						<path style="fill:#026b67;" d="M244.977,245.434c5.942-2.054,78.127,12.356,96.499,28.372        c0.202,5.83-38.377,11.039-51.188,18.374c-30.027-8.721-50.038-6.758-50.038-6.758s-20.754,18.12-30.615,23.701        c-9.861,5.581-32.125,23.503-32.125,23.503l-12.166-14.965C165.344,317.66,228.798,251.028,244.977,245.434z"/>
					</g>
				</g>
				<path style="opacity:0.58;fill:none;stroke:#026b67;stroke-width:1.0651;stroke-linecap:round;stroke-miterlimit:10;" d="      M288.263,283.723c0,0-37.652-12.399-43.054-10.336c-5.402,2.063-28.297,30.55-62.491,46.806"/>
				
					<line style="opacity:0.58;fill:none;stroke:#026b67;stroke-width:1.0651;stroke-linecap:round;stroke-miterlimit:10;" x1="185.707" y1="324.138" x2="172.915" y2="310.931"/>
			</g>
			<g>
				<g>
					<path style="fill:#026b67;" d="M356.519,271.802c0,0,0.443,58.713-62.131,35.092c-28.241-10.661-39.488-20.792-39.488-20.792       s-11.515,24.049-17.375,33.748s-17.841,26.31-17.841,26.31l-16.499-7.355c0,0,26.843-77.996,43.81-80.271       c16.967-2.275,42.79,1.849,77.049,13.342C324.043,271.876,350.634,271.992,356.519,271.802z"/>
				</g>
			</g>
			<path style="opacity:0.58;fill:none;stroke:#026b67;stroke-width:1.0651;stroke-linecap:round;stroke-miterlimit:10;" d="     M351.948,275.436c-11.021,34.886-36.519,33.47-52.934,28.129c-16.415-5.341-38.434-24.468-44.539-22.968     c-6.106,1.5-13.087,33.651-33.167,54.859"/>
			
				<line style="opacity:0.58;fill:none;stroke:#026b67;stroke-width:1.0651;stroke-linecap:round;stroke-miterlimit:10;" x1="225.339" y1="337.629" x2="207.914" y2="329.862"/>
			<g>
				<g>
					<g>
						<path style="fill:#E7D8CE;" d="M298.161,274.97l-57.558-25.657c-2.216-0.988-3.211-3.585-2.224-5.8l0.233-0.523        c0.988-2.216,3.585-3.211,5.8-2.224l57.558,25.657c2.216,0.988,3.211,3.585,2.224,5.8l-0.233,0.523        C302.974,274.962,300.377,275.957,298.161,274.97z"/>
					</g>
				</g>
				<g>
					<g>
						<path style="fill:#f0f0f0;" d="M229.746,244.473c-2.468-1.1-3.889-3.722-3.463-6.391l8.209-51.398        c0.502-3.141,3.845-4.953,6.75-3.657l29.363,13.089c1.981,0.883,3.133,2.976,2.819,5.123l-8.624,58.86L229.746,244.473z"/>
					</g>
				</g>
				<g>
					<g>
						<path style="fill:#E7D8CE;" d="M273.427,201.24l-8.554,58.374l3.355,1.496l8.554-58.374c0.311-2.149-0.837-4.243-2.819-5.126        l-3.355-1.496C272.589,196.998,273.738,199.092,273.427,201.24z"/>
					</g>
				</g>
				<g>
					<g>
						<path style="fill:#E7D8CE;" d="M253.86,222.829c-0.618,3.182-3.458,4.719-6.342,3.434c-2.885-1.286-4.722-4.908-4.103-8.09        c0.618-3.182,3.458-4.719,6.342-3.433C252.641,216.025,254.478,219.647,253.86,222.829z"/>
					</g>
				</g>
			</g>
			<g>
				<g>
					<g>
						<g>
							<path style="fill:#455a64;" d="M307.471,218.854c0.006,0.065,0.004,0.118,0.01,0.184c0.038,0.703,0.121,1.395,0.247,2.086         c0.717,4.128,2.733,7.954,3.558,9.396c0.225,0.405,0.367,0.62,0.367,0.62c-0.005,0.02-0.02,0.038-0.027,0.069         c-0.065,0.187-0.131,0.375-0.201,0.583c-0.271,0.79-0.62,1.733-1.095,2.753c-5.521,11.694-6.656,13.603-8.946,18.584         c10.771,27.001,52.445,21.092,55.134,18.674c4.632-12.07,4.632-12.07,9.276-23.714c2.238-5.623,6.637-13.813,11.818-21.787         c0.202-0.316,0.404-0.631,0.617-0.944c1.542-2.339,3.142-4.653,4.768-6.854c7.121-9.643,8.259-19.528,3.012-25.362         c-1.782-1.982-7.864-5.441-10.617-6.717c-0.741-0.345-1.474-0.677-2.169-0.99c-3.897-1.726-6.981-2.909-6.981-2.909         l-19.602-4.346c-1.975-0.229-3.761-0.392-5.388-0.464c-1.423-0.078-2.723-0.084-3.91-0.032         c-10.606,0.435-12.2,5.59-16.209,14.618c-1.148,2.57-2.498,5.05-3.896,7.411c-0.451,0.737-0.899,1.465-1.347,2.192         C311.599,208.818,307.301,214.62,307.471,218.854z"/>
						</g>
					</g>
				</g>
				<g>
					<g>
						<path style="fill:#f0f0f0;" d="M367.644,183.077c0,0,9.698,3.049,7.419,8.55c-2.28,5.501-15.952,8.225-23.679,1.939        C351.384,193.567,364.683,191.056,367.644,183.077z"/>
					</g>
				</g>
				<g>
					<g>
						<path style="fill:#f0f0f0;" d="M347.04,178.24c0,0-11.293-2.683-13.316,3.369c-2.023,6.052,7.113,12.221,13.658,10.461        C347.382,192.071,344.134,186.941,347.04,178.24z"/>
					</g>
				</g>
				<g>
					<g>
						<path style="fill:#ffbea2;" d="M347.36,177.503l-2.306,6.759c-1.881,5.514,3.368,10.776,8.898,8.938        c6.441-2.141,12.597-5.68,13.692-10.123L347.36,177.503z"/>
					</g>
				</g>
			</g>
			<g>
				<g>
					<g>
						<path style="fill:#026b67;" d="M348.729,135.555c0,0-7.526,7.016-4.706,12.811l6.726-11.57L348.729,135.555z"/>
					</g>
				</g>
				<g>
					<g>
						<path style="fill:#026b67;" d="M358.626,129.05c0,0,16.707-4.911,24.916,10.942c8.352,16.128-5.514,38.432-18.871,34.884        C364.671,174.876,354.161,147.113,358.626,129.05z"/>
					</g>
				</g>
				<g>
					<g>
						<g>
							<g>
								<g>
									<g>
										<path style="fill:#ff9061;" d="M346.566,151.728c0,0-1.775-4.363-4.527-1.48c-2.752,2.883-3.756,10.21,1.015,10.518            L346.566,151.728z"/>
									</g>
								</g>
							</g>
						</g>
					</g>
					<g>
						<g>
							<g>
								<g>
									<g>
										<g>
											<path style="fill:#ffbea2;" d="M350.299,168.002l-3.712,11.865c0,0,3.497,9.742,21.057,3.21             c-2.124-3.888-0.797-10.024,1.235-13.453c0,0-1.211,0.134-3.277,0.786c-0.404,0.128-0.862,0.161-1.334,0.241             C360.097,171.353,355.017,169.503,350.299,168.002z"/>
										</g>
									</g>
								</g>
							</g>
						</g>
						<g>
							<g>
								<g>
									<g>
										<g>
											<path style="fill:#ff9061;" d="M350.299,168.002l-2.329,6.901c4.345,0.05,12.3-0.459,17.63-4.493             c-0.416,0.08-0.862,0.161-1.334,0.241C360.097,171.353,355.017,169.503,350.299,168.002z"/>
										</g>
									</g>
								</g>
							</g>
						</g>
					</g>
					<g>
						<g>
							<g>
								<g>
									<g>
										<path style="fill:#ffbea2;" d="M340.618,165.304c3.701,11.4,25.867,7.183,26.535,7.051            c0.01-0.002,0.017-0.004,0.017-0.004c0.402-0.68,0.786-1.36,1.153-2.036c3.111-5.726,5.031-11.362,6.171-16.941            c2.15-5.572,0.501-11.956-4.196-15.644c-4.869-3.821-10.619-3.012-13.897-3.068c-4.948-0.083-9.675,4.801-12.408,13.07            C340.639,157.881,339.595,162.152,340.618,165.304z"/>
									</g>
								</g>
							</g>
						</g>
					</g>
					<g>
						<g>
							<g>
								<g>
									<g>
										<path style="fill:#026b67;" d="M359.127,144.349c0,0-1.696-0.375-1.611,1.32c0.085,1.695,3.924,1.113,5.375,4.659            C362.891,150.328,365.075,147.044,359.127,144.349z"/>
									</g>
								</g>
							</g>
						</g>
					</g>
					<g>
						<g>
							<g>
								<g>
									<g>
										<path style="fill:#026b67;" d="M351.681,141.915c0,0,1.59,0.7,0.52,2.017c-1.07,1.317-3.823-1.42-7.089,0.583            C345.113,144.515,345.291,140.574,351.681,141.915z"/>
									</g>
								</g>
							</g>
						</g>
					</g>
					<g>
						<g>
							<g>
								<g>
									<g>
										<path style="fill:#ff9061;" d="M365.125,166.964c0.012,0.134,0.346,3.798,2.029,5.391            c0.002,0.001,0.001,0.002,0.003,0.003c0.009-0.005,0.014-0.007,0.014-0.007c0.402-0.68,0.786-1.36,1.153-2.036            C368.252,170.279,366.357,169.272,365.125,166.964z"/>
									</g>
								</g>
							</g>
						</g>
					</g>
					<g>
						<g>
							<g>
								<g>
									<g>
										<path style="fill:#ffbea2;" d="M369.444,160.283c0,0,6.059-4.278,7.69,1.174c1.344,4.493-6.582,12.464-10.542,7.549            L369.444,160.283z"/>
									</g>
								</g>
							</g>
						</g>
					</g>
					<g>
						<path style="fill:none;stroke:#ff9061;stroke-width:1.0651;stroke-linecap:round;stroke-miterlimit:10;" d="M352.114,148.537        l-3.33,4.562c-0.038,0.053-0.024,0.126,0.034,0.155c0.376,0.186,1.667,0.752,2.643,0.309"/>
						<path style="fill:#f0f0f0;" d="M346.425,157.734c1.747,7.287,9.945,3.664,10.987,0.233L346.425,157.734z"/>
						<path style="fill:none;stroke:#ff9061;stroke-width:1.0651;stroke-linecap:round;stroke-miterlimit:10;" d="M375.063,162.01        c-4.382-0.192-6.177,3.483-6.839,4.76"/>
						<path style="fill:none;stroke:#ff9061;stroke-width:1.0651;stroke-linecap:round;stroke-miterlimit:10;" d="M373.012,165.618        c-1.136-1.916-2.404-1.446-2.404-1.446"/>
					</g>
					<g>
						<g>
							<g>
								<g>
									<g>
										<path style="fill:#f0f0f0;" d="M367.95,169.538c-0.238,0.726,0.159,1.507,0.885,1.745            c0.726,0.237,1.507-0.159,1.745-0.885c0.237-0.726-0.159-1.507-0.885-1.745            C368.968,168.416,368.187,168.812,367.95,169.538z"/>
									</g>
								</g>
							</g>
						</g>
					</g>
					<g>
						<g>
							<g>
								<g>
									<g>
										<g>
											<path style="fill:#026b67;" d="M356.552,151.839c-0.344,1.053-0.146,2.063,0.443,2.255             c0.589,0.193,1.346-0.505,1.69-1.557c0.344-1.053,0.146-2.063-0.443-2.255             C357.652,150.089,356.896,150.786,356.552,151.839z"/>
										</g>
									</g>
								</g>
							</g>
						</g>
						<g>
							<g>
								<g>
									<g>
										<g>
											<path style="fill:#026b67;" d="M346.135,148.433c-0.344,1.053-0.146,2.063,0.443,2.255             c0.589,0.193,1.345-0.505,1.69-1.558c0.344-1.053,0.146-2.062-0.443-2.255             C347.236,146.683,346.479,147.38,346.135,148.433z"/>
										</g>
									</g>
								</g>
							</g>
						</g>
					</g>
				</g>
				<g>
					<g>
						<g>
							<g>
								<g>
									<path style="fill:#026b67;" d="M377.199,148.025c0,0-7.481,3.371-9.482,1.279c-2.001-2.093,3.477-5.576,3.477-5.576           s-10.051,1.833-12.842-0.729c-2.791-2.561,4.393-4.624,4.393-4.624s-8.412,3.667-12.011,2.111           c-3.598-1.557,1.642-5.022,1.642-5.022s-5.539,5.452-7.593,4.156c-2.054-1.296,4.031-9.731,12.501-10.51           C365.753,128.331,384.453,135.086,377.199,148.025z"/>
								</g>
							</g>
						</g>
					</g>
				</g>
				<g>
					<g>
						<g>
							<g>
								<g>
									<path style="fill:#026b67;" d="M371.443,147.643c0,0-6.769,11.009-3.749,13.5c3.574,2.948,8.702-5.876,9.843-14.454           L371.443,147.643z"/>
								</g>
							</g>
						</g>
					</g>
				</g>
			</g>
		</g>
		<g>
			<g>
				<g>
					<path style="fill:#ffbea2;" d="M290.179,251.827c0,0-13.6-6.518-19.861-4.983l-1.515,10.339c0,0,8.572,1.152,10.492,2.655       c1.92,1.503,1.191,5.66,9.392,7.595L290.179,251.827z"/>
				</g>
			</g>
			<g>
				<g>
					<path style="fill:#455a64;" d="M366.522,200.219l-0.008,0.575l-0.026,0.805c-0.023,0.552-0.055,1.123-0.096,1.698       c-0.074,1.152-0.178,2.327-0.31,3.504c-0.262,2.355-0.634,4.72-1.1,7.062c-0.902,4.692-2.192,9.302-3.878,13.704       c-0.418,1.103-0.869,2.189-1.336,3.264c-0.463,1.078-0.953,2.14-1.471,3.185c-0.513,1.048-1.055,2.078-1.622,3.09       c-0.562,1.016-1.159,2.008-1.773,2.986c-0.607,0.983-1.256,1.935-1.913,2.88c-0.668,0.936-1.352,1.86-2.068,2.756       c-0.716,0.896-1.45,1.777-2.218,2.626c-0.378,0.43-0.771,0.847-1.163,1.263l-0.147,0.157l-0.06,0.064l0.065-0.062       c0.099-0.085,0.16-0.139,0.233-0.191c0.121-0.091,0.185-0.125,0.215-0.134c0.033-0.008-0.087,0.085-0.325,0.198       c-0.233,0.114-0.559,0.25-0.94,0.384c-0.767,0.271-1.734,0.535-2.772,0.764c-2.092,0.462-4.464,0.796-6.897,1.062       c-4.889,0.524-10.057,0.726-15.255,0.817c-5.207,0.074-10.476,0.017-15.757-0.134c-2.641-0.068-5.287-0.162-7.931-0.28       l-3.961-0.196l-1.973-0.103l-1.925-0.112l-1.841,17.346l2.108,0.286l2.062,0.267c1.373,0.169,2.745,0.327,4.116,0.48       c2.743,0.306,5.489,0.585,8.242,0.839c5.507,0.49,11.04,0.872,16.64,1.072c5.607,0.204,11.257,0.238,17.143-0.113       c2.951-0.182,5.954-0.475,9.169-1.04c1.613-0.29,3.28-0.649,5.09-1.191c0.907-0.275,1.854-0.598,2.863-1.014       c1.006-0.414,2.094-0.934,3.275-1.655c0.599-0.373,1.218-0.794,1.864-1.31c0.331-0.27,0.652-0.539,0.992-0.861l0.249-0.236       l0.119-0.116l0.208-0.205c0.557-0.545,1.112-1.091,1.65-1.654c1.088-1.115,2.133-2.269,3.151-3.445       c1.017-1.177,1.993-2.387,2.942-3.615c0.937-1.236,1.858-2.485,2.724-3.767c3.468-5.126,6.375-10.578,8.676-16.219       c2.31-5.64,4.073-11.442,5.348-17.334c0.62-2.951,1.12-5.924,1.489-8.936c0.185-1.507,0.338-3.022,0.452-4.565       c0.054-0.772,0.098-1.551,0.131-2.348c0.016-0.399,0.03-0.802,0.039-1.221l0.011-0.644l0.002-0.346l-0.003-0.461       L366.522,200.219z"/>
				</g>
			</g>
		</g>
		<g>
			<path style="fill:none;stroke:#000800;stroke-width:1.0651;stroke-linecap:round;stroke-miterlimit:10;" d="M328.884,199.306     c2.03,13.624,16.215,9.951,29.238,4.393"/>
			<path style="fill:none;stroke:#000800;stroke-width:1.0651;stroke-linecap:round;stroke-miterlimit:10;" d="M367.87,205.424     c-5.886,24.559-21.53,43.044-21.53,43.044l-42.719,4.349"/>
			<path style="fill:none;stroke:#000800;stroke-width:1.0651;stroke-linecap:round;stroke-miterlimit:10;" d="M346.34,248.469     c6.755,3.442,6.074,8.447,6.074,8.447"/>
			
				<line style="fill:none;stroke:#000800;stroke-width:1.0651;stroke-linecap:round;stroke-miterlimit:10;" x1="300.879" y1="253.135" x2="299.258" y2="270.11"/>
			
				<line style="fill:none;stroke:#000800;stroke-width:1.0651;stroke-linecap:round;stroke-miterlimit:10;" x1="299.357" y1="265.876" x2="290.384" y2="265.821"/>
			<path style="fill:none;stroke:#000800;stroke-width:1.0651;stroke-linecap:round;stroke-miterlimit:10;" d="M319.548,196.832     c-1.775,4.333-4.54,7.964-7.486,11.552c-1.103,1.343-2.333,2.716-3.142,4.267c-0.923,1.77-0.685,4.399-0.7,6.348     c-0.018,2.436,0.098,5.195,0.985,7.496c1.059,2.745,3.426,4.824,6.056,6.144c2.63,1.32,5.535,1.972,8.407,2.612"/>
			<path style="fill:none;stroke:#000800;stroke-width:1.0651;stroke-linecap:round;stroke-miterlimit:10;" d="M311.653,231.14     c-3.969,6.685-7.026,14.319-7.026,14.319"/>
			<path style="fill:none;stroke:#000800;stroke-width:1.0651;stroke-linecap:round;stroke-miterlimit:10;" d="M295.982,183.862     c3.18,5.391,3.6,9.613,3.6,9.613"/>
			<path style="fill:#000800;" d="M345.969,195.241c-0.395,0.886,0.003,1.925,0.889,2.32c0.886,0.395,1.925-0.003,2.32-0.889     c0.395-0.886-0.003-1.925-0.889-2.32C347.403,193.957,346.364,194.355,345.969,195.241z"/>
			<path style="fill:#000800;" d="M343.078,201.726c-0.395,0.886,0.003,1.925,0.889,2.32c0.886,0.395,1.925-0.003,2.32-0.889     c0.395-0.886-0.003-1.925-0.889-2.32C344.512,200.441,343.473,200.839,343.078,201.726z"/>
			<path style="fill:#000800;" d="M292.638,259.507c-0.395,0.886,0.003,1.925,0.889,2.32c0.886,0.395,1.925-0.003,2.32-0.889     c0.395-0.886-0.003-1.925-0.889-2.32C294.072,258.223,293.033,258.621,292.638,259.507z"/>
			<path style="fill:none;stroke:#000800;stroke-width:1.0651;stroke-linecap:round;stroke-miterlimit:10;" d="M258.92,152.705     c-3.716,6.233-10.574,9.351-10.574,9.351"/>
			
				<line style="fill:none;stroke:#000800;stroke-width:1.0651;stroke-linecap:round;stroke-miterlimit:10;" x1="245.126" y1="153.128" x2="251.133" y2="159.841"/>
			<path style="fill:#000800;" d="M253.613,153.143c-0.185,0.91-1.073,1.497-1.982,1.311c-0.91-0.185-1.497-1.073-1.311-1.982     c0.185-0.91,1.073-1.497,1.982-1.311C253.212,151.346,253.799,152.233,253.613,153.143z"/>
		</g>
	</g>
	<g>
		<path style="fill:#E7D8CE;" d="M168.497,406.401c0,0,82.538-31.259,134.736,19.411    C303.233,425.813,201.61,444.082,168.497,406.401z"/>
		<path style="fill:#ffbea2;" d="M348.075,295.375c32.778-45.285,41.316-69.356,60.592-63.485    c19.277,5.871,10.397,35.173-20.291,85.73c-30.689,50.557-38.225,58.187-66.304,73.549    c-34.628,18.944-23.044,37.378-23.044,37.378s-74.226,28.743-116.01,21.1c0,0-9.578-32.319-9.127-57.95    C174.34,366.067,348.075,295.375,348.075,295.375z"/>
		<path style="fill:#ffbea2;" d="M264.173,356.634c0,0,40.742-11.175,80.901-27.508c40.159-16.333,18.606-51.454-12.994-36.23    c-31.6,15.224-33.298,10.827-76.619,12.531c-43.32,1.704-77.848,26.194-81.571,86.271c0,0,43.046,38.009,102.742,3.872    L264.173,356.634z"/>
		<path style="fill:none;stroke:#ff9061;stroke-width:0.9059;stroke-linecap:round;stroke-miterlimit:10;" d="M264.173,356.634    c0,0,40.742-11.175,80.901-27.508c40.159-16.333,18.606-51.454-12.994-36.23c-31.6,15.224-33.298,10.827-76.619,12.531"/>
		<path style="fill:#f0f0f0;" d="M339.77,305.388c0,0,0.101,12.789,6.853,20.477c0,0,13.189-5.254,15.056-10.22    c1.867-4.966-2.866-14.887-4.945-15.782C354.655,298.969,340.653,304.22,339.77,305.388z"/>
		<path style="fill:#f0f0f0;" d="M168.497,406.401c0,0,34.826,25.12,134.736,19.411v18.269c0,0-61.088,16.556-134.736-5.709V406.401    z"/>
		<path style="fill:#026b67;" d="M313.407,500l-7.626-57.529c-103.69,5.709-139.833-19.411-139.833-19.411L165.344,500H313.407z"/>
	</g>
	<g>
		<circle style="fill:#f0f0f0;" cx="408.914" cy="366.452" r="64"/>
		<g>
			<polygon style="fill:#799FD7;" points="387.664,367.952 357.164,398.452 460.664,398.452 431.164,368.952    "/>
			<path style="opacity:0.43;fill:#ffffff;" d="M384.992,370.452c0,0,12.047,8,12.047,12s-17,5-19,6s-12,2-11,0     S384.992,370.452,384.992,370.452z"/>
			<path style="opacity:0.43;fill:#ffffff;" d="M434.039,371.452c0,0-26,6-25,12s4,5,12,2s5,1,7,4s8,2,12,2s18,4,18,4     L434.039,371.452z"/>
			<g>
				<path style="fill:#455a64;" d="M433.468,341.007c0,13.561-24.554,49.445-24.554,49.445s-24.555-35.884-24.555-49.445      c0-13.561,10.993-24.555,24.555-24.555C422.475,316.452,433.468,327.446,433.468,341.007z"/>
				<path style="fill:#f0f0f0;" d="M425.395,340.67c0,8.917-7.228,16.145-16.145,16.145s-16.146-7.228-16.146-16.145      s7.229-16.146,16.146-16.146S425.395,331.754,425.395,340.67z"/>
			</g>
		</g>
	</g>
	<g>
		<defs fill="#000000">
			<rect id="SVGID_00000000206110939911128480000011653125916460496565_" width="500" height="500" fill="#000000"/>
		</defs>
		<clipPath id="SVGID_00000083049965568626008540000010139278817601502095_" fill="#000000">
			<use xlink:href="#SVGID_00000000206110939911128480000011653125916460496565_" style="overflow:visible;" fill="#000000"/>
		</clipPath>
		<g style="clip-path:url(#SVGID_00000083049965568626008540000010139278817601502095_);">
			<path style="fill:#f0f0f0;" d="M449.787,221.938h76.055c0,0,0.771-5.158-10.628-2.579c0,0-1.269-13.758-11.399-14.732     c-10.13-0.974-7.718,6.332-7.718,6.332s-3.377-15.854-22.19-17.127c-18.813-1.273-18.813,21.186-18.813,21.186     s-10.613-2.292-13.507,6.92H449.787z"/>
			<path style="fill:#f0f0f0;" d="M-14.689,348.119h98.621c0,0,1-6.689-13.781-3.344c0,0-1.645-17.84-14.781-19.103     c-13.136-1.262-10.008,8.211-10.008,8.211s-4.379-20.558-28.774-22.209c-24.395-1.651-24.395,27.473-24.395,27.473     s-13.762-2.972-17.515,8.973H-14.689z"/>
		</g>
	</g>
	<g>
		<path style="fill:#f0f0f0;" d="M33.851,93.844h76.055c0,0,0.771-5.158-10.628-2.579c0,0-1.269-13.758-11.399-14.731    c-10.13-0.974-7.718,6.332-7.718,6.332s-3.377-15.854-22.19-17.127S39.158,86.924,39.158,86.924s-10.613-2.292-13.507,6.92H33.851    z"/>
		<path style="fill:#f0f0f0;" d="M271.606,44.759h63.358c0,0,0.642-4.297-8.854-2.149c0,0-1.057-11.461-9.496-12.272    c-8.439-0.811-6.43,5.275-6.43,5.275s-2.813-13.207-18.486-14.268c-15.673-1.061-15.673,17.649-15.673,17.649    s-8.841-1.91-11.252,5.765H271.606z"/>
	</g>
</g>
</svg>