<svg id="visual" viewBox="0 0 1200 450" width="1200" height="450" xmlns="http://www.w3.org/2000/svg" xmlns:xlink="http://www.w3.org/1999/xlink" version="1.1"><rect x="0" y="0" width="1200" height="450" fill="#ffffff"></rect><path d="M0 274L28.5 279.8C57 285.7 114 297.3 171.2 300C228.3 302.7 285.7 296.3 342.8 292.3C400 288.3 457 286.7 514.2 282.8C571.3 279 628.7 273 685.8 271.3C743 269.7 800 272.3 857.2 282.5C914.3 292.7 971.7 310.3 1028.8 312C1086 313.7 1143 299.3 1171.5 292.2L1200 285L1200 451L1171.5 451C1143 451 1086 451 1028.8 451C971.7 451 914.3 451 857.2 451C800 451 743 451 685.8 451C628.7 451 571.3 451 514.2 451C457 451 400 451 342.8 451C285.7 451 228.3 451 171.2 451C114 451 57 451 28.5 451L0 451Z" fill="#01be95"></path><path d="M0 330L28.5 331.3C57 332.7 114 335.3 171.2 330.2C228.3 325 285.7 312 342.8 307C400 302 457 305 514.2 314.7C571.3 324.3 628.7 340.7 685.8 341.5C743 342.3 800 327.7 857.2 317.5C914.3 307.3 971.7 301.7 1028.8 306.7C1086 311.7 1143 327.3 1171.5 335.2L1200 343L1200 451L1171.5 451C1143 451 1086 451 1028.8 451C971.7 451 914.3 451 857.2 451C800 451 743 451 685.8 451C628.7 451 571.3 451 514.2 451C457 451 400 451 342.8 451C285.7 451 228.3 451 171.2 451C114 451 57 451 28.5 451L0 451Z" fill="#00a884"></path><path d="M0 368L28.5 365.3C57 362.7 114 357.3 171.2 354.2C228.3 351 285.7 350 342.8 347C400 344 457 339 514.2 342C571.3 345 628.7 356 685.8 363.7C743 371.3 800 375.7 857.2 370.2C914.3 364.7 971.7 349.3 1028.8 344C1086 338.7 1143 343.3 1171.5 345.7L1200 348L1200 451L1171.5 451C1143 451 1086 451 1028.8 451C971.7 451 914.3 451 857.2 451C800 451 743 451 685.8 451C628.7 451 571.3 451 514.2 451C457 451 400 451 342.8 451C285.7 451 228.3 451 171.2 451C114 451 57 451 28.5 451L0 451Z" fill="#009373"></path><path d="M0 363L28.5 368C57 373 114 383 171.2 383.8C228.3 384.7 285.7 376.3 342.8 375.8C400 375.3 457 382.7 514.2 385.2C571.3 387.7 628.7 385.3 685.8 382.3C743 379.3 800 375.7 857.2 375.2C914.3 374.7 971.7 377.3 1028.8 378.5C1086 379.7 1143 379.3 1171.5 379.2L1200 379L1200 451L1171.5 451C1143 451 1086 451 1028.8 451C971.7 451 914.3 451 857.2 451C800 451 743 451 685.8 451C628.7 451 571.3 451 514.2 451C457 451 400 451 342.8 451C285.7 451 228.3 451 171.2 451C114 451 57 451 28.5 451L0 451Z" fill="#007e63"></path><path d="M0 426L28.5 421.8C57 417.7 114 409.3 171.2 405.2C228.3 401 285.7 401 342.8 400.2C400 399.3 457 397.7 514.2 401.7C571.3 405.7 628.7 415.3 685.8 420.8C743 426.3 800 427.7 857.2 426.7C914.3 425.7 971.7 422.3 1028.8 420.2C1086 418 1143 417 1171.5 416.5L1200 416L1200 451L1171.5 451C1143 451 1086 451 1028.8 451C971.7 451 914.3 451 857.2 451C800 451 743 451 685.8 451C628.7 451 571.3 451 514.2 451C457 451 400 451 342.8 451C285.7 451 228.3 451 171.2 451C114 451 57 451 28.5 451L0 451Z" fill="#006a53"></path></svg>